<?xml version="1.0" encoding="utf-8"?>
<!-- Generator: Adobe Illustrator 19.2.0, SVG Export Plug-In . SVG Version: 6.00 Build 0)  -->
<svg version="1.1" id="Слой_1" xmlns="http://www.w3.org/2000/svg" xmlns:xlink="http://www.w3.org/1999/xlink" x="0px" y="0px"
	 width="56px" height="55px" viewBox="0 0 56 55" style="enable-background:new 0 0 56 55;" xml:space="preserve">
<style type="text/css">
	.st0{fill:#85B6C2;}
</style>
<g id="XMLID_314_">
	<rect id="XMLID_315_" x="15.2" y="0.7" class="st0" width="1.4" height="7.7"/>
	<rect id="XMLID_397_" x="39.4" y="0.7" class="st0" width="1.4" height="7.7"/>
	<rect id="XMLID_398_" x="21.7" y="4.1" class="st0" width="12.2" height="1.4"/>
	<path id="XMLID_401_" class="st0" d="M49,4.1h-2.6v1.4H49c3.1,0,5.6,2.5,5.6,5.7V18H1.4v-6.9C1.4,8,4,5.5,7.2,5.5h2.6V4.1H7.2
		c-4,0-7.2,3.2-7.2,7.1v36.7C0,51.8,3.2,55,7.2,55H49c3.9,0,7-3.2,7-7.1V11.2C56,7.2,52.9,4.1,49,4.1z M54.6,47.9
		c0,3.2-2.5,5.7-5.6,5.7H7.2c-3.2,0-5.8-2.6-5.8-5.7V19.5h53.2V47.9z"/>
	<path id="XMLID_402_" class="st0" d="M19.2,28.2c0.2,0,0.4-0.1,0.5-0.2c3.3-3.2,8.2-4.2,12.5-2.5c2.9,1.1,5.2,3.4,6.4,6.2
		c1,2.3,1.2,4.8,0.7,7.2l-0.1,0.5L38,37.2c-0.1-0.2-0.2-0.3-0.4-0.3c-0.1,0-0.1,0-0.2,0c-0.1,0-0.2,0-0.3,0.1
		c-0.2,0.1-0.3,0.2-0.3,0.4c-0.1,0.2,0,0.4,0.1,0.5l2,3.7c0.1,0.2,0.2,0.3,0.4,0.3c0.2,0.1,0.4,0,0.5-0.1l3.7-2
		c0.3-0.2,0.5-0.6,0.3-1c-0.2-0.3-0.6-0.5-1-0.3l-2.1,1.2l0.1-0.4c0.7-2.8,0.4-5.6-0.7-8.2c-1.4-3.2-3.9-5.7-7.2-7
		c-4.8-1.9-10.3-0.8-14,2.8c-0.1,0.1-0.2,0.3-0.2,0.5c0,0.2,0.1,0.4,0.2,0.5C18.9,28.1,19,28.2,19.2,28.2z"/>
	<path id="XMLID_403_" class="st0" d="M13.3,34.5l2.1-1.2l-0.1,0.4c-1.5,6.3,1.9,12.8,7.9,15.2c1.5,0.6,3.1,0.9,4.8,0.9
		c3.4,0,6.6-1.3,9-3.6c0.1-0.1,0.2-0.3,0.2-0.5c0-0.2-0.1-0.4-0.2-0.5c-0.3-0.3-0.7-0.3-1,0c-3.3,3.1-8.1,4.1-12.3,2.4
		c-5.4-2.1-8.4-7.8-7.1-13.4l0.1-0.5l1.2,2.2c0.1,0.2,0.2,0.3,0.4,0.3c0.2,0.1,0.4,0,0.5,0c0.2-0.1,0.3-0.2,0.3-0.4
		c0.1-0.2,0-0.4-0.1-0.5l-2-3.7c-0.1-0.2-0.2-0.3-0.4-0.3c-0.2-0.1-0.4,0-0.5,0.1l-3.7,2c-0.2,0.1-0.3,0.2-0.3,0.4
		c-0.1,0.2,0,0.4,0.1,0.5C12.5,34.5,13,34.7,13.3,34.5z"/>
</g>
</svg>
