<?xml version="1.0" encoding="utf-8"?>
<!-- Generator: Adobe Illustrator 19.2.0, SVG Export Plug-In . SVG Version: 6.00 Build 0)  -->
<svg version="1.1" id="Слой_1" xmlns="http://www.w3.org/2000/svg" xmlns:xlink="http://www.w3.org/1999/xlink" x="0px" y="0px"
	 width="55px" height="55px" viewBox="0 0 55 55" style="enable-background:new 0 0 55 55;" xml:space="preserve">
<style type="text/css">
	.st0{fill:#85B7C3;}
</style>
<g id="XMLID_352_">
	<path id="XMLID_469_" class="st0" d="M42.5,29.7c-6.9,0-12.5,5.7-12.5,12.7S35.6,55,42.5,55C49.4,55,55,49.3,55,42.3
		S49.4,29.7,42.5,29.7z M42.5,53.4c-6,0-10.9-5-10.9-11.1s4.9-11.1,10.9-11.1c6,0,10.9,5,10.9,11.1S48.5,53.4,42.5,53.4z"/>
	<path id="XMLID_484_" class="st0" d="M13,25.9c6.9,0,12.5-5.7,12.5-12.7c0-7-5.6-12.7-12.5-12.7C6.1,0.6,0.5,6.3,0.5,13.3
		C0.5,20.3,6.1,25.9,13,25.9z M13,2.2c6,0,10.9,5,10.9,11.1S19,24.3,13,24.3c-6,0-10.9-5-10.9-11.1C2.1,7.2,7,2.2,13,2.2z"/>
	<path id="XMLID_497_" class="st0" d="M53,1.4c-0.2,0-0.4,0.1-0.6,0.2L1.9,52.9c-0.1,0.2-0.2,0.4-0.2,0.6c0,0.2,0.1,0.4,0.2,0.6
		c0.1,0.1,0.3,0.2,0.6,0.2c0,0,0,0,0,0c0.2,0,0.4-0.1,0.6-0.2L53.6,2.7c0.3-0.3,0.3-0.8,0-1.1C53.4,1.5,53.2,1.4,53,1.4z"/>
</g>
</svg>
