<?xml version="1.0" encoding="utf-8"?>
<!-- Generator: Adobe Illustrator 19.2.0, SVG Export Plug-In . SVG Version: 6.00 Build 0)  -->
<svg version="1.1" id="Слой_1" xmlns="http://www.w3.org/2000/svg" xmlns:xlink="http://www.w3.org/1999/xlink" x="0px" y="0px"
	 width="33.4px" height="38.5px" viewBox="0 0 33.4 38.5" style="enable-background:new 0 0 33.4 38.5;" xml:space="preserve">
<style type="text/css">
	.st0{fill:#13110C;}
</style>
<g id="XMLID_302_">
	<path id="XMLID_331_" class="st0" d="M6,14.6c2.4,0,4.4-2,4.4-4.4S8.4,5.8,6,5.8s-4.4,2-4.4,4.4S3.6,14.6,6,14.6z M6,6.9
		c1.8,0,3.3,1.5,3.3,3.3S7.8,13.5,6,13.5c-1.8,0-3.3-1.5-3.3-3.3S4.2,6.9,6,6.9z"/>
	<path id="XMLID_335_" class="st0" d="M0,18.8v9.9C0,30,1,31,2.3,31h0.6v7.5h1.1v-8.5H2.3c-0.7,0-1.2-0.5-1.2-1.2v-9.9
		c0-0.6,0.5-1.2,1.2-1.2H8v-1.1H2.3C1,16.6,0,17.6,0,18.8z"/>
	<polygon id="XMLID_336_" class="st0" points="8,38.5 9.1,38.5 9.1,31 9.7,31 9.7,29.9 8,29.9 	"/>
	<path id="XMLID_339_" class="st0" d="M16.7,10.1c2.8,0,5-2.3,5-5s-2.3-5-5-5s-5,2.3-5,5S13.9,10.1,16.7,10.1z M16.8,1
		c2.2,0,4,1.8,4,4s-1.8,4-4,4s-4-1.8-4-4C12.8,2.8,14.5,1.1,16.8,1z"/>
	<path id="XMLID_342_" class="st0" d="M27.4,14.6c2.4,0,4.4-2,4.4-4.4s-2-4.4-4.4-4.4s-4.4,2-4.4,4.4S25,14.6,27.4,14.6z M25.1,7.8
		c0.6-0.6,1.4-0.9,2.3-0.9c1.8,0,3.3,1.5,3.3,3.3s-1.5,3.3-3.3,3.3s-3.3-1.5-3.3-3.3C24.1,9.3,24.5,8.4,25.1,7.8z"/>
	<path id="XMLID_343_" class="st0" d="M23.8,27.1V15.2c0-1.4-1.1-2.6-2.6-2.6h-9c-1.4,0-2.6,1.1-2.6,2.6V27c0,1.4,1.1,2.6,2.6,2.6
		h0.9v8.9h1.1v-10h-1.9c-0.8,0-1.5-0.7-1.5-1.5V15.2c0-0.8,0.7-1.5,1.5-1.5h9c0.8,0,1.5,0.7,1.5,1.5v11.7c0,0.8-0.7,1.5-1.5,1.5h-2
		v10h1.1v-9h1C22.6,29.5,23.7,28.4,23.8,27.1L23.8,27.1z"/>
	<polygon id="XMLID_344_" class="st0" points="23.8,31 24.3,31 24.3,38.5 25.4,38.5 25.4,29.9 23.8,29.9 	"/>
	<path id="XMLID_345_" class="st0" d="M31.2,16.6h-5.7v1.1h5.8c0.6,0,1.2,0.5,1.2,1.2v9.9c0,0.6-0.5,1.2-1.2,1.2h-1.7v8.5h1.1V31
		h0.6c1.2,0,2.3-1,2.3-2.3v-9.9C33.4,17.6,32.4,16.6,31.2,16.6z"/>
</g>
</svg>
