<?xml version="1.0" encoding="utf-8"?>
<!-- Generator: Adobe Illustrator 19.2.0, SVG Export Plug-In . SVG Version: 6.00 Build 0)  -->
<svg version="1.1" id="Слой_1" xmlns="http://www.w3.org/2000/svg" xmlns:xlink="http://www.w3.org/1999/xlink" x="0px" y="0px"
	 width="56px" height="64px" viewBox="0 0 56 64" style="enable-background:new 0 0 56 64;" xml:space="preserve">
<style type="text/css">
	.st0{fill:#384B9A;}
</style>
<g id="XMLID_302_">
	<path id="XMLID_331_" class="st0" d="M9.9,24.3c4,0,7.2-3.2,7.2-7.2s-3.3-7.2-7.2-7.2s-7.2,3.2-7.2,7.2S5.9,24.3,9.9,24.3z
		 M9.9,11.6c3,0,5.5,2.4,5.5,5.4s-2.5,5.4-5.5,5.4S4.4,20,4.4,17S6.9,11.6,9.9,11.6z"/>
	<path id="XMLID_335_" class="st0" d="M-0.1,31.3v16.4c0,2.1,1.7,3.7,3.8,3.7h1v12.3h1.8v-14H3.7c-1.1,0-2.1-0.9-2.1-2V31.3
		c0-1.1,0.9-2,2-2h9.6v-1.8H3.7C1.6,27.6-0.1,29.3-0.1,31.3z"/>
	<polygon id="XMLID_336_" class="st0" points="13.3,63.8 15,63.8 15,51.5 16,51.5 16,49.7 13.3,49.7 	"/>
	<path id="XMLID_339_" class="st0" d="M27.7,16.9c4.6,0,8.4-3.7,8.4-8.3s-3.8-8.3-8.4-8.3S19.3,4,19.3,8.6S23.1,16.9,27.7,16.9z
		 M27.8,1.9c3.7,0,6.7,3,6.7,6.6s-3,6.6-6.7,6.6s-6.7-3-6.7-6.6C21.1,4.9,24,2,27.8,1.9z"/>
	<path id="XMLID_342_" class="st0" d="M45.5,24.3c4,0,7.2-3.2,7.2-7.2s-3.3-7.2-7.2-7.2s-7.2,3.2-7.2,7.2S41.6,24.3,45.5,24.3z
		 M41.7,13.2c1-1,2.4-1.6,3.8-1.5c3,0,5.5,2.4,5.5,5.4s-2.5,5.4-5.5,5.4S40,20.1,40,17.1C40,15.6,40.6,14.2,41.7,13.2z"/>
	<path id="XMLID_343_" class="st0" d="M39.4,45V25.4c0-2.3-1.9-4.2-4.2-4.2H20.3c-2.3,0-4.2,1.9-4.2,4.2v19.5c0,2.3,1.9,4.2,4.2,4.2
		h1.4v14.7h1.8V47.3h-3.1c-1.4,0-2.6-1.1-2.6-2.5V25.4c0-1.4,1.1-2.5,2.6-2.5h14.9c1.4,0,2.6,1.1,2.6,2.5v19.4
		c0,1.4-1.1,2.5-2.6,2.5h-3.4v16.5h1.8V49h1.6C37.5,49,39.4,47.2,39.4,45L39.4,45z"/>
	<polygon id="XMLID_344_" class="st0" points="39.4,51.5 40.4,51.5 40.4,63.8 42.2,63.8 42.2,49.7 39.4,49.7 	"/>
	<path id="XMLID_345_" class="st0" d="M51.8,27.6h-9.5v1.8h9.6c1.1,0,2,0.9,2,2v16.4c0,1.1-0.9,2-2,2H49v14.1h1.8V51.5h1
		c2.1,0,3.8-1.7,3.8-3.7V31.3C55.5,29.3,53.9,27.6,51.8,27.6z"/>
</g>
</svg>
