<?xml version="1.0" encoding="utf-8"?>
<!-- Generator: Adobe Illustrator 19.2.0, SVG Export Plug-In . SVG Version: 6.00 Build 0)  -->
<svg version="1.1" id="Слой_1" xmlns="http://www.w3.org/2000/svg" xmlns:xlink="http://www.w3.org/1999/xlink" x="0px" y="0px"
	 width="76px" height="56px" viewBox="0 0 76 56" style="enable-background:new 0 0 76 56;" xml:space="preserve">
<style type="text/css">
	.st0{fill:#5C98CA;}
</style>
<path id="XMLID_144_" class="st0" d="M75.5,17.6L38.7,0.7c-0.2-0.1-0.4-0.1-0.7,0L0.6,17.6c-0.3,0.1-0.5,0.4-0.5,0.7
	c0,0.3,0.2,0.6,0.5,0.8l14.5,8v19c0,0.4,0.2,0.7,0.6,0.8l22.5,9c0.1,0.1,0.2,0.1,0.3,0.1c0.1,0,0.1,0,0.2-0.1l23.3-9
	c0.3-0.1,0.6-0.5,0.6-0.8V26.6c0-0.3-0.1-0.5-0.4-0.7c-0.2-0.2-0.5-0.2-0.8-0.1l-22.9,9l-10.5-4.5v1.8l10.1,4.3
	c0.2,0.1,0.4,0.1,0.6,0l22.3-8.2l-0.1,17.4l-22.5,8.6l-21.7-8.6v-19c0-0.3-0.2-0.6-0.4-0.7L2.8,18.4L38.4,2.3l35.9,16.5v28.4H76
	V18.3C76,18,75.8,17.8,75.5,17.6z"/>
</svg>
