<?xml version="1.0" encoding="utf-8"?>
<!-- Generator: Adobe Illustrator 19.2.0, SVG Export Plug-In . SVG Version: 6.00 Build 0)  -->
<svg version="1.1" id="Слой_1" xmlns="http://www.w3.org/2000/svg" xmlns:xlink="http://www.w3.org/1999/xlink" x="0px" y="0px"
	 width="62px" height="55px" viewBox="0 0 62 55" style="enable-background:new 0 0 62 55;" xml:space="preserve">
<style type="text/css">
	.st0{fill:#9F3A40;}
</style>
<g id="XMLID_310_">
	<path id="XMLID_316_" class="st0" d="M61.8,5.7c-0.1-0.1-0.3-0.3-0.6-0.3H22.7C22,5.4,22,5.9,22,6.2c0,0.2,0.1,0.8,0.7,0.8h37.6
		L60,8.3c-1.5,6.7-3,13.3-4.5,20l-0.2,0.9h-32L13.1,0.6C13,0.4,12.8,0,12.3,0H0.7C0.1,0,0,0.5,0,0.8C0,1,0.1,1.5,0.7,1.5h11.1
		L21.9,30l3.3,7.9c0.3,0.7,0.6,0.7,0.8,0.7h27.4c0.6,0,0.7-0.5,0.7-0.8c0-0.2-0.1-0.8-0.7-0.8H26.5l-2.7-6.4h32.1
		c0.3,0,0.7-0.2,0.7-0.5L62,6.4C62,6.2,62,5.9,61.8,5.7z"/>
	<path id="XMLID_333_" class="st0" d="M32,41.8c-3.5,0-6.4,2.9-6.4,6.5c0,3.6,2.9,6.5,6.4,6.5c3.5,0,6.4-2.9,6.4-6.5
		C38.4,44.7,35.5,41.8,32,41.8z M32,53.1c-2.7,0-4.9-2.2-4.9-4.9s2.2-4.9,4.9-4.9c2.7,0,4.9,2.2,4.9,4.9S34.7,53.1,32,53.1z"/>
	<path id="XMLID_347_" class="st0" d="M47.8,41.8c-3.5,0-6.4,2.9-6.4,6.5c0,3.6,2.9,6.5,6.4,6.5c3.5,0,6.4-2.9,6.4-6.5
		C54.2,44.7,51.3,41.8,47.8,41.8z M47.8,53.1c-2.7,0-4.9-2.2-4.9-4.9s2.2-4.9,4.9-4.9c2.7,0,4.9,2.2,4.9,4.9S50.4,53.1,47.8,53.1z"
		/>
</g>
</svg>
