<?xml version="1.0" encoding="utf-8"?>
<!-- Generator: Adobe Illustrator 19.2.0, SVG Export Plug-In . SVG Version: 6.00 Build 0)  -->
<svg version="1.1" id="Слой_1" xmlns="http://www.w3.org/2000/svg" xmlns:xlink="http://www.w3.org/1999/xlink" x="0px" y="0px"
	 width="56px" height="56px" viewBox="0 0 56 56" style="enable-background:new 0 0 56 56;" xml:space="preserve">
<style type="text/css">
	.st0{fill:#85B7C3;}
</style>
<path id="XMLID_160_" class="st0" d="M56,28.2c0-7.4-2.9-14.3-8.1-19.5c-5-5-11.6-7.9-18.7-8.1l-0.2,0v0h-1.5l-0.2,0
	C20.3,0.8,13.6,3.7,8.6,8.7c-5.2,5.2-8.1,12.2-8.1,19.6l0,0.1c0,7.4,2.9,14.3,8.1,19.5c5,5,11.6,7.9,18.7,8.1l0.2,0v0H29l0.2,0
	c7.1-0.2,13.7-3.1,18.7-8.1c5.2-5.2,8.1-12.2,8.1-19.6L56,28.2z M27.5,54.6l-0.2,0c-6.7-0.2-13-3-17.7-7.7c-5-5-7.7-11.6-7.7-18.6
	l0-0.1c0-7,2.8-13.6,7.7-18.6c4.7-4.7,11-7.5,17.7-7.7l0.2,0V54.6z M54.6,28.3c0,7-2.8,13.6-7.7,18.6c-4.7,4.7-11,7.5-17.7,7.7
	l-0.2,0v-5.7h10.2v-1.5H29v-5.2h13.7v-1.5H29v-5.2h19.2v-1.5H29V29h19.3v-1.5H29v-5.2h19.3v-1.5H29v-5.2h13.7v-1.5H29V9.1h10.2V7.6
	H29V1.9l0.2,0c6.7,0.2,13,3,17.7,7.7c4.9,4.9,7.7,11.5,7.7,18.6L54.6,28.3z"/>
</svg>
