<?xml version="1.0" encoding="utf-8"?>
<!-- Generator: Adobe Illustrator 19.2.0, SVG Export Plug-In . SVG Version: 6.00 Build 0)  -->
<svg version="1.1" id="Слой_1" xmlns="http://www.w3.org/2000/svg" xmlns:xlink="http://www.w3.org/1999/xlink" x="0px" y="0px"
	 width="55px" height="55px" viewBox="0 0 55 55" style="enable-background:new 0 0 55 55;" xml:space="preserve">
<style type="text/css">
	.st0{fill:#85B7C3;}
</style>
<path id="XMLID_407_" class="st0" d="M48.8,28.2L48.8,28.2L48.7,28l2.1-11.1c0.5-3-0.9-4.1-2.7-5.6L36.8,3.2c-2-1.7-4.4-2.5-6.9-2.5
	c-0.5,0-1.1,0-1.6,0.1L7.2,5.9C5.6,6.1,4.3,7.2,3.9,8.8L0.7,22.1c-0.3,1.1-0.1,2.3,0.4,3.3c0.5,0.9,1.4,1.6,2.6,1.9l14.5,3.4
	l8.4,4.7l0,0.1c-0.5,1.6-0.8,3.2-0.8,4.7c0,8.1,6.5,14.8,14.5,14.8c3.9,0,7.6-1.6,10.4-4.4c2.7-2.8,4.2-6.5,4.2-10.5
	C54.8,35.5,52.5,31,48.8,28.2z M18.7,29.1L3.9,25.7c-0.8-0.2-1.3-0.7-1.6-1.2c-0.3-0.6-0.4-1.4-0.2-2L5.3,9.1c0.2-1,0.9-1.6,2.1-1.8
	l21.1-5.1c2.6-0.4,5.2,0.4,7.3,2.1l11.1,7.9l0.2,0.2c1.9,1.6,2.5,2.1,2.2,4.2l-2,10.6l-0.2-0.1c-1.8-1-3.7-1.5-5.7-1.7l-0.2,0l0.7-6
	l0-0.1c-0.1-0.7-0.6-0.8-1.7-1.1l-0.2-0.1c-1.7-0.5-4.5-1.3-5.6-3.8c-0.1-0.3-0.3-0.5-0.6-0.6c-0.6-0.2-1.2,0.3-2.1,1.2
	c-0.2,0.2-0.4,0.4-0.6,0.6c-0.1,0.1-0.2,0.2-0.2,0.2l0,0l0,0c-1.6,0.5-2.8,1.6-3.3,3.3l-0.2,0.5l16,12.7c0.5,0.6,1.8,2.9-0.1,5.6
	c-0.8,1.1-2.4,1.5-4,1.5c-1.2,0-2.3-0.2-2.9-0.3l0,0L18.7,29.1z M40.3,19.8l0,0.2l-0.7,5.4l-0.1,0c-0.6,0.1-1.3,0.3-2.1,0.5l-0.1,0
	l-8.4-6.7l0.1-0.1c0.4-0.7,1-1.4,2.1-1.7c0.4-0.2,0.8-0.5,1.5-1.2c0.1-0.1,0.2-0.2,0.3-0.3c0.1,0,0.1-0.1,0.2-0.2l0.2-0.2l0.1,0.2
	c1.7,2.6,4.7,3.4,6.4,3.9c0.1,0,0.2,0,0.3,0.1c0,0,0.1,0,0.1,0L40.3,19.8z M40.3,53.4c-7.2,0-13-5.9-13-13.2c0-1.3,0.2-2.5,0.5-3.8
	l0.1-0.2l0.2,0.1l8,4.5c0.2,0.1,1.6,0.5,3.5,0.5c1.7,0,4-0.3,5-1.9c2.4-3.4,1-6.5-0.1-7.6l-5.6-4.5l0.4-0.1c0.6-0.2,1-0.2,1.1-0.2
	c7.2,0,13,5.9,13,13.2S47.5,53.4,40.3,53.4z"/>
</svg>
