<?xml version="1.0" encoding="utf-8"?>
<!-- Generator: Adobe Illustrator 19.2.0, SVG Export Plug-In . SVG Version: 6.00 Build 0)  -->
<svg version="1.1" id="Слой_1" xmlns="http://www.w3.org/2000/svg" xmlns:xlink="http://www.w3.org/1999/xlink" x="0px" y="0px"
	 width="62px" height="73px" viewBox="0 0 62 73" style="enable-background:new 0 0 62 73;" xml:space="preserve">
<style type="text/css">
	.st0{fill:#6790EA;}
</style>
<g id="XMLID_368_">
	<path id="XMLID_408_" class="st0" d="M36.4,39c6.1,0,11.1-4.9,11.1-11c0-6.1-5-11-11.1-11c-6.1,0-11.1,4.9-11.1,11
		C25.3,34,30.3,39,36.4,39z M27.1,28c0-5.1,4.2-9.3,9.3-9.3c5.1,0,9.3,4.2,9.3,9.3c0,5.1-4.2,9.3-9.3,9.3
		C31.3,37.2,27.1,33.1,27.1,28z"/>
	<path id="XMLID_411_" class="st0" d="M36.4,34c3.3,0,6.1-2.7,6.1-6c0-3.3-2.7-6-6.1-6c-3.3,0-6,2.7-6,6C30.4,31.3,33.1,34,36.4,34z
		 M31.8,28c0-2.5,2.1-4.5,4.6-4.5c2.5,0,4.6,2,4.6,4.5c0,2.5-2,4.5-4.6,4.5C33.9,32.5,31.8,30.5,31.8,28z"/>
	<path id="XMLID_414_" class="st0" d="M61.3,50.4L61.3,50.4c-1.5-2.3-4.4-1.7-5.7-1l-12,6H31.7c-1,0-1.9-0.8-1.9-1.9
		c0-1,0.8-1.8,1.9-1.8h8.6c2.2,0,4.1-1.6,4.3-3.7c0.1-0.6,0.3-3.6-2.7-4.2c-3.3-0.6-11.5-0.5-14.4-0.4c-5.2,0.2-8.3,2.3-8.7,2.6
		L11,50.5l-0.5-1.3c-0.1-0.2-0.2-0.4-0.4-0.5c-0.2-0.1-0.4-0.1-0.6,0l-8.9,3.3c-0.4,0.2-0.6,0.6-0.5,1.1l7.2,19.3
		c0.1,0.2,0.2,0.4,0.4,0.5C7.8,73,8,73,8.1,73c0.1,0,0.2,0,0.2,0l8.9-3.3c0.4-0.2,0.6-0.6,0.5-1.1L16.4,65l27.8,0
		c0.9-0.1,1.6-0.3,2.2-0.7l13.5-8.5c0.2-0.1,1.7-1.1,2.1-2.7C62.1,52.2,61.9,51.3,61.3,50.4z M9.3,50.6l6.6,17.8l-7.4,2.8L1.9,53.3
		L9.3,50.6z M28.2,53.6c0,1.9,1.6,3.5,3.5,3.5h12.2l12.4-6.2c0.7-0.4,2.7-1,3.6,0.4c0.4,0.5,0.5,1.1,0.4,1.6l0,0
		c-0.2,0.9-1.2,1.6-1.3,1.6L45.5,63c-0.3,0.2-0.8,0.4-1.4,0.4H15.8l-4.2-11.3l9-5.3c1.4-0.8,3.7-1.7,6-1.7h13.8
		c0.7,0,1.4,0.3,1.9,0.8c0.5,0.5,0.7,1.2,0.6,2c-0.1,1.2-1.3,2.2-2.7,2.2h-8.6C29.8,50.1,28.2,51.7,28.2,53.6z M61.2,50.5L61.2,50.5
		L61.2,50.5L61.2,50.5z"/>
	<path id="XMLID_417_" class="st0" d="M36.8,9.7c0.5,0,0.9-0.4,0.9-0.9V1.1c0-0.5-0.4-0.9-0.9-0.9c-0.5,0-0.9,0.4-0.9,0.9v7.7
		C35.9,9.3,36.3,9.7,36.8,9.7z"/>
	<path id="XMLID_418_" class="st0" d="M28.5,15c0.5,0,0.9-0.4,0.9-0.9V6.4c0-0.5-0.4-0.9-0.9-0.9c-0.5,0-0.9,0.4-0.9,0.9v7.7
		C27.6,14.6,28,15,28.5,15z"/>
	<path id="XMLID_419_" class="st0" d="M44.8,15c0.5,0,0.9-0.4,0.9-0.9V6.4c0-0.5-0.4-0.9-0.9-0.9c-0.5,0-0.9,0.4-0.9,0.9v7.7
		C44,14.6,44.4,15,44.8,15z"/>
</g>
</svg>
