<?xml version="1.0" encoding="utf-8"?>
<!-- Generator: Adobe Illustrator 19.2.0, SVG Export Plug-In . SVG Version: 6.00 Build 0)  -->
<svg version="1.1" id="Слой_1" xmlns="http://www.w3.org/2000/svg" xmlns:xlink="http://www.w3.org/1999/xlink" x="0px" y="0px"
	 width="59px" height="38.6px" viewBox="0 0 59 38.6" style="enable-background:new 0 0 59 38.6;" xml:space="preserve">
<style type="text/css">
	.st0{fill:#13110C;}
</style>
<g id="XMLID_25_">
	<path id="XMLID_305_" class="st0" d="M58.5,37.6H51v-22c0,0,0-0.1,0-0.1c0-0.1,0-0.1,0-0.2v-0.1l0,0c0.1-0.1,0.3-0.3,0.4-0.5
		l0.1-0.2l0.1,0.2c0.6,0.9,1.6,1.3,2.6,1.3h0.4c1-0.1,1.8-0.7,2.2-1.6c0.5-1,0.5-2.1,0-3l-5-9.6C51.2,0.7,49.9,0,48.6,0H10.4
		C9.1,0,7.9,0.7,7.3,1.9l-5,9.6c-0.5,0.9-0.5,2.1,0,3c0.5,0.9,1.3,1.5,2.3,1.6l0.4,0c1,0,2-0.5,2.6-1.4l0.1-0.1l0.1,0.1
		c0.1,0.1,0.1,0.1,0.2,0.2C7.9,15,7.9,15,8,15.1l0,0v22.4H0.5c-0.3,0-0.5,0.3-0.5,0.5c0,0.3,0.3,0.5,0.5,0.5h58
		c0.3,0,0.5-0.3,0.5-0.5C59,37.8,58.8,37.6,58.5,37.6z M23.9,37.4L23.9,37.4l-0.1,0.1H13.1v-14c0-1.3,1-2.4,2.3-2.4h6.2
		c1.3,0,2.3,1,2.3,2.4V37.4z M50,37.5H25v-14c0-1.9-1.5-3.4-3.4-3.4h-6.1c-1.8,0-3.4,1.5-3.4,3.4v14h-3V15.9l0.2,0.1
		c0.4,0.1,0.7,0.2,1.1,0.2c1,0,2-0.5,2.6-1.4l0.1-0.1l0.1,0.1c0.6,0.9,1.6,1.3,2.6,1.3c1,0,2-0.5,2.6-1.4l0.1-0.1l0.1,0.1
		c0.6,0.9,1.6,1.3,2.6,1.3c1,0,2-0.5,2.6-1.4l0.1-0.1l0.1,0.1c0.6,0.9,1.6,1.3,2.6,1.3c1,0,1.9-0.5,2.6-1.4l0.1-0.1l0.1,0.1
		c0.6,0.9,1.6,1.3,2.6,1.3c1,0,2-0.5,2.6-1.4l0.1-0.1l0.1,0.1c0.6,0.9,1.6,1.3,2.6,1.3c1,0,2-0.5,2.6-1.4l0.1-0.1l0.1,0.1
		c0.6,0.9,1.6,1.3,2.6,1.3c1,0,2-0.5,2.6-1.4l0.1-0.1l0.1,0.1c0.6,0.9,1.6,1.3,2.6,1.3c0.4,0,0.7-0.1,1.1-0.2l0.2-0.1V37.5z
		 M48.7,15c-1.2,0-2.2-1-2.2-2.2c0-0.3-0.3-0.5-0.5-0.5c-0.3,0-0.5,0.3-0.5,0.5c0,1.2-1,2.2-2.2,2.2C42,15,41,14,41,12.8
		c0-0.3-0.3-0.5-0.5-0.5c-0.3,0-0.5,0.3-0.5,0.5c0,1.2-1,2.2-2.2,2.2s-2.2-1-2.2-2.2c0-0.3-0.3-0.5-0.5-0.5c-0.2,0-0.5,0.3-0.5,0.5
		c0,1.2-1,2.2-2.2,2.2c-1.2,0-2.2-1-2.2-2.2c0-0.3-0.3-0.5-0.5-0.5c-0.2,0-0.5,0.3-0.5,0.5c0,1.2-1,2.2-2.2,2.2
		c-1.2,0-2.2-1-2.2-2.2c0-0.3-0.3-0.5-0.5-0.5c-0.2,0-0.5,0.3-0.5,0.5c0,1.2-1,2.2-2.2,2.2c-1.2,0-2.2-1-2.2-2.2
		c0-0.3-0.3-0.5-0.5-0.5c-0.2,0-0.5,0.3-0.5,0.5c0,1.2-1,2.2-2.2,2.2c-1.2,0-2.2-1-2.2-2.2c0-0.3-0.3-0.5-0.5-0.5
		c-0.2,0-0.5,0.3-0.5,0.5c0,1.2-1,2.2-2.2,2.2c-1.2,0-2.2-1-2.2-2.2c0-0.2-0.2-0.5-0.5-0.5s-0.5,0.3-0.5,0.5c0,0.7-0.3,1.3-0.8,1.7
		c-0.4,0.3-0.9,0.5-1.4,0.5c-0.1,0-0.2,0-0.3,0C4,15,3.4,14.6,3.1,14c-0.3-0.7-0.3-1.4,0-2l5-9.6c0.5-0.9,1.3-1.3,2.2-1.3h38.2
		c0.9,0,1.8,0.5,2.2,1.3l5,9.6c0.3,0.7,0.3,1.4,0,2c-0.3,0.6-0.8,0.9-1.4,1l-0.3,0c-1.2,0-2.2-1-2.2-2.2c0-0.3-0.3-0.5-0.5-0.5
		c-0.3,0-0.5,0.3-0.5,0.5C50.9,14,49.9,15,48.7,15z"/>
	<path id="XMLID_324_" class="st0" d="M33.8,20.2h-3.1c-1.4,0-2.5,1.1-2.5,2.6v6.9c0,1.4,1.1,2.6,2.5,2.6h3.1c1.4,0,2.5-1.1,2.5-2.6
		v-6.9c0-0.7-0.2-1.3-0.7-1.8C35.1,20.5,34.5,20.2,33.8,20.2z M35.2,29.7c0,0.8-0.6,1.5-1.5,1.5h-3.1c-0.8,0-1.5-0.7-1.5-1.5v-6.9
		c0-0.8,0.6-1.5,1.5-1.5h3.1c0.8,0,1.5,0.7,1.5,1.5V29.7z"/>
	<path id="XMLID_327_" class="st0" d="M44.5,20.2h-3.1c-1.4,0-2.5,1.1-2.5,2.6v6.9c0,1.4,1.1,2.6,2.5,2.6h3.1c1.4,0,2.5-1.1,2.5-2.6
		v-6.9C47,21.4,45.8,20.2,44.5,20.2z M46,29.7c0,0.8-0.6,1.5-1.5,1.5h-3.1c-0.8,0-1.5-0.7-1.5-1.5v-6.9c0-0.8,0.6-1.5,1.5-1.5h3.1
		c0.8,0,1.5,0.7,1.5,1.5V29.7z"/>
	<path id="XMLID_328_" class="st0" d="M12.4,2.7c0,0-2.5,0-3.4,2.3c0,0.1,0,0.1,0,0.2c0,0.2,0.1,0.3,0.3,0.4l0,0c0,0,0.1,0,0.2,0
		c0.2,0,0.4-0.1,0.5-0.3c0.7-1.6,2.5-1.7,2.5-1.7c0.3,0,0.5-0.3,0.5-0.5C12.9,2.9,12.6,2.7,12.4,2.7z"/>
	<path id="XMLID_329_" class="st0" d="M21.8,29.6h0.3c0.3,0,0.5-0.3,0.5-0.5c0-0.3-0.3-0.5-0.5-0.5h-0.3c-0.7,0-1.3,0.6-1.3,1.3v0.6
		c0,0.7,0.6,1.3,1.3,1.3h0.3c0.3,0,0.5-0.3,0.5-0.5c0-0.3-0.3-0.5-0.5-0.5h-0.3c-0.1,0-0.3-0.1-0.3-0.3V30c0-0.1,0-0.2,0-0.3
		C21.6,29.7,21.7,29.6,21.8,29.6z"/>
</g>
</svg>
