<?xml version="1.0" encoding="utf-8"?>
<!-- Generator: Adobe Illustrator 19.2.0, SVG Export Plug-In . SVG Version: 6.00 Build 0)  -->
<svg version="1.1" id="Слой_1" xmlns="http://www.w3.org/2000/svg" xmlns:xlink="http://www.w3.org/1999/xlink" x="0px" y="0px"
	 width="85px" height="55px" viewBox="0 0 85 55" style="enable-background:new 0 0 85 55;" xml:space="preserve">
<style type="text/css">
	.st0{fill:#384B9A;}
</style>
<g id="XMLID_25_">
	<path id="XMLID_305_" class="st0" d="M84.3,53.2H73.5V22.4c0-0.1,0-0.1,0-0.2s-0.1-0.2-0.1-0.3v-0.1l0.1-0.1
		c0.2-0.2,0.4-0.4,0.5-0.6l0.1-0.3l0.2,0.3c0.9,1.2,2.2,1.9,3.8,1.9h0.6c1.4-0.2,2.5-0.9,3.2-2.2c0.7-1.4,0.7-2.9,0-4.2L74.6,3.2
		c-0.9-1.6-2.7-2.7-4.5-2.7H15c-1.9,0-3.6,1-4.5,2.7L3.2,16.6c-0.7,1.3-0.7,2.9,0,4.2S5,22.9,6.5,23H7c1.5,0,2.8-0.7,3.8-1.9
		l0.1-0.2L11,21c0.1,0.1,0.2,0.2,0.2,0.3c0.1,0.1,0.1,0.2,0.2,0.2l0.1,0.1V53H0.7C0.2,53,0,53.4,0,53.7c0,0.4,0.4,0.7,0.7,0.7h83.6
		c0.5,0,0.7-0.4,0.7-0.7C85,53.5,84.6,53.2,84.3,53.2z M34.4,53L34.4,53l-0.1,0.2H18.9V33.6c0-1.8,1.5-3.3,3.3-3.3h8.9
		c1.9,0,3.3,1.4,3.3,3.3C34.4,33.6,34.4,53,34.4,53z M72,53.1H36V33.6c0-2.6-2.2-4.7-4.9-4.7h-8.8c-2.6,0-4.9,2.2-4.9,4.7v19.5h-4.3
		V22.8l0.2,0.1c0.6,0.2,1,0.3,1.6,0.3c1.5,0,2.8-0.7,3.8-1.9l0.1-0.2l0.1,0.2c0.9,1.2,2.2,1.9,3.8,1.9c1.5,0,2.8-0.7,3.8-1.9
		l0.1-0.2l0.1,0.2c0.9,1.2,2.2,1.9,3.8,1.9c1.5,0,2.8-0.7,3.8-1.9l0.1-0.2l0.1,0.2c0.9,1.2,2.2,1.9,3.8,1.9c1.4,0,2.7-0.7,3.7-1.9
		l0.1-0.2l0.1,0.2c0.9,1.2,2.2,1.9,3.8,1.9c1.5,0,2.8-0.7,3.8-1.9l0.1-0.2l0.1,0.2c0.9,1.2,2.2,1.9,3.8,1.9c1.5,0,2.8-0.7,3.8-1.9
		l0.1-0.2l0.1,0.2c0.9,1.2,2.2,1.9,3.8,1.9c1.5,0,2.8-0.7,3.8-1.9l0.1-0.2l0.1,0.2c0.9,1.2,2.2,1.9,3.8,1.9c0.5,0,1.1-0.1,1.6-0.3
		l0.2-0.1v30.3H72z M70.1,21.6c-1.7,0-3.2-1.4-3.2-3.1c0-0.4-0.4-0.7-0.7-0.7c-0.5,0-0.7,0.4-0.7,0.7c0,1.7-1.5,3.1-3.2,3.1
		s-3.2-1.4-3.2-3.1c0-0.4-0.4-0.7-0.7-0.7c-0.5,0-0.7,0.4-0.7,0.7c0,1.7-1.5,3.1-3.2,3.1s-3.2-1.4-3.2-3.1c0-0.4-0.4-0.7-0.7-0.7
		c-0.4,0-0.7,0.4-0.7,0.7c0,1.7-1.5,3.1-3.2,3.1c-1.8,0-3.2-1.4-3.2-3.1c0-0.4-0.4-0.7-0.7-0.7c-0.4,0-0.7,0.4-0.7,0.7
		c0,1.7-1.5,3.1-3.2,3.1s-3.2-1.4-3.2-3.1c0-0.4-0.4-0.7-0.7-0.7c-0.4,0-0.7,0.4-0.7,0.7c0,1.7-1.5,3.1-3.2,3.1s-3.2-1.4-3.2-3.1
		c0-0.4-0.4-0.7-0.7-0.7c-0.4,0-0.7,0.4-0.7,0.7c0,1.7-1.5,3.1-3.2,3.1s-3.2-1.4-3.2-3.1c0-0.4-0.4-0.7-0.7-0.7
		c-0.4,0-0.7,0.4-0.7,0.7c0,1.7-1.5,3.1-3.2,3.1s-3.2-1.4-3.2-3.1c0-0.3-0.3-0.7-0.7-0.7s-0.7,0.4-0.7,0.7c0,0.9-0.4,1.8-1.1,2.4
		c-0.6,0.5-1.3,0.7-2,0.7c-0.2,0-0.3,0-0.5,0c-0.9-0.1-1.7-0.6-2.1-1.4c-0.5-0.9-0.5-2,0-2.8L11.8,4c0.7-1.2,1.8-1.9,3.2-1.9h55.1
		c1.4,0,2.6,0.7,3.2,1.9l7.3,13.4c0.5,1,0.5,2,0,2.8c-0.4,0.8-1.1,1.3-2.1,1.4h-0.4c-1.7,0-3.2-1.4-3.2-3.1c0-0.4-0.4-0.7-0.7-0.7
		c-0.5,0-0.7,0.4-0.7,0.7C73.4,20.2,71.9,21.6,70.1,21.6z"/>
	<path id="XMLID_324_" class="st0" d="M48.7,28.9h-4.4c-2,0-3.6,1.6-3.6,3.6v9.7c0,1.9,1.6,3.6,3.6,3.6h4.4c2,0,3.6-1.6,3.6-3.6
		v-9.7c0-0.9-0.3-1.8-1-2.5S49.6,28.9,48.7,28.9z M50.8,42.2c0,1.2-0.9,2-2.1,2h-4.4c-1.2,0-2.1-0.9-2.1-2v-9.7c0-1.2,0.9-2,2.1-2
		h4.4c1.2,0,2.1,0.9,2.1,2V42.2z"/>
	<path id="XMLID_327_" class="st0" d="M64.1,28.9h-4.4c-2,0-3.6,1.6-3.6,3.6v9.7c0,1.9,1.6,3.6,3.6,3.6h4.4c2,0,3.6-1.6,3.6-3.6
		v-9.7C67.7,30.5,66,28.9,64.1,28.9z M66.2,42.2c0,1.2-0.9,2-2.1,2h-4.4c-1.2,0-2.1-0.9-2.1-2v-9.7c0-1.2,0.9-2,2.1-2h4.4
		c1.2,0,2.1,0.9,2.1,2V42.2z"/>
	<path id="XMLID_328_" class="st0" d="M17.8,4.4c0,0-3.5,0-4.9,3.3c-0.1,0.1-0.1,0.2,0,0.3c0,0.2,0.2,0.4,0.4,0.5l0,0
		c0,0,0.1,0,0.2,0c0.3,0,0.6-0.1,0.7-0.4c1-2.3,3.5-2.4,3.6-2.4c0.5,0,0.7-0.4,0.7-0.7C18.5,4.7,18.2,4.4,17.8,4.4z"/>
	<path id="XMLID_329_" class="st0" d="M31.4,42.1h0.5c0.5,0,0.7-0.4,0.7-0.7c0-0.4-0.4-0.7-0.7-0.7h-0.5c-1,0-1.8,0.8-1.8,1.9v0.9
		c0,1,0.9,1.9,1.8,1.9h0.5c0.5,0,0.7-0.4,0.7-0.7c0-0.4-0.4-0.7-0.7-0.7h-0.5c-0.2,0-0.4-0.2-0.4-0.4v-0.9c-0.1-0.2,0-0.3,0-0.4
		C31.1,42.1,31.2,42.1,31.4,42.1z"/>
</g>
</svg>
