<?xml version="1.0" encoding="utf-8"?>
<!-- Generator: Adobe Illustrator 19.2.0, SVG Export Plug-In . SVG Version: 6.00 Build 0)  -->
<svg version="1.1" id="Слой_1" xmlns="http://www.w3.org/2000/svg" xmlns:xlink="http://www.w3.org/1999/xlink" x="0px" y="0px"
	 width="49.9px" height="64.8px" viewBox="0 0 49.9 64.8" style="enable-background:new 0 0 49.9 64.8;" xml:space="preserve">
<style type="text/css">
	.st0{fill:#FF3BC1;}
</style>
<g id="XMLID_307_">
	<path id="XMLID_380_" class="st0" d="M46.7,17.4h-7.5v-3.3c0-7.7-6.4-13.8-14.5-13.8c-8.1,0-14.5,6-14.5,13.8v3.3H2.7
		c-1.3,0-2.4,1.1-2.4,2.4v42.6c0,1.3,1.1,2.4,2.4,2.4h44c1.3,0,2.4-1.1,2.4-2.4V19.8C49.1,18.5,48,17.4,46.7,17.4z M12.2,14.1
		c0-6.6,5.5-11.8,12.5-11.8s12.5,5.2,12.5,11.8v3.3h-25V14.1z M47.2,62.9H2.2V19.4h44.9V62.9z"/>
	<path id="XMLID_385_" class="st0" d="M33.2,44.4c-2.9,0-5.2,2.3-5.2,5.2c0,2.9,2.3,5.2,5.2,5.2c2.9,0,5.2-2.3,5.2-5.2
		C38.5,46.8,36.1,44.4,33.2,44.4z M33.2,52.9c-1.8,0-3.3-1.5-3.3-3.3c0-1.8,1.5-3.3,3.3-3.3c1.8,0,3.3,1.5,3.3,3.3
		C36.5,51.5,35,52.9,33.2,52.9z"/>
	<path id="XMLID_388_" class="st0" d="M16.2,37.9c2.9,0,5.2-2.3,5.2-5.2c0-2.9-2.3-5.2-5.2-5.2s-5.2,2.3-5.2,5.2
		C10.9,35.5,13.3,37.9,16.2,37.9z M16.2,29.3c1.8,0,3.3,1.5,3.3,3.3c0,1.8-1.5,3.3-3.3,3.3s-3.3-1.5-3.3-3.3
		C12.9,30.8,14.4,29.3,16.2,29.3z"/>
	<path id="XMLID_389_" class="st0" d="M13.3,53.9l24.1-24.1c0.4-0.4,0.4-1,0-1.4c-0.2-0.2-0.4-0.3-0.7-0.3c-0.2,0-0.5,0.1-0.7,0.3
		L11.9,52.5c-0.4,0.4-0.4,1,0,1.4C12.3,54.3,12.9,54.3,13.3,53.9z"/>
</g>
</svg>
