<?xml version="1.0" encoding="utf-8"?>
<!-- Generator: Adobe Illustrator 19.2.0, SVG Export Plug-In . SVG Version: 6.00 Build 0)  -->
<svg version="1.1" id="Слой_1" xmlns="http://www.w3.org/2000/svg" xmlns:xlink="http://www.w3.org/1999/xlink" x="0px" y="0px"
	 width="58px" height="55px" viewBox="0 0 58 55" style="enable-background:new 0 0 58 55;" xml:space="preserve">
<style type="text/css">
	.st0{fill:#5C98CA;}
</style>
<g id="XMLID_123_">
	<path id="XMLID_208_" class="st0" d="M18.3,35.5c-0.8,0-1.4,0.6-1.4,1.4c0,0.8,0.6,1.4,1.4,1.4c0.4,0,0.8-0.2,1.1-0.5
		c0.2-0.3,0.4-0.6,0.4-0.9C19.7,36.1,19.1,35.5,18.3,35.5z"/>
	<path id="XMLID_215_" class="st0" d="M26.1,35.5c-0.8,0-1.4,0.6-1.4,1.4c0,0.8,0.6,1.4,1.4,1.4c0.4,0,0.8-0.2,1.1-0.5
		c0.2-0.3,0.4-0.6,0.4-0.9C27.5,36.1,26.9,35.5,26.1,35.5z"/>
	<path id="XMLID_223_" class="st0" d="M10.5,35.5c-0.8,0-1.4,0.6-1.4,1.4c0,0.8,0.6,1.4,1.4,1.4c0.4,0,0.8-0.2,1.1-0.5
		c0.2-0.3,0.4-0.6,0.4-0.9C11.9,36.1,11.2,35.5,10.5,35.5z"/>
	<path id="XMLID_231_" class="st0" d="M56.6,33.2L56.6,33.2c-1.4-0.7-2.3-2-2.8-3l-0.2-0.4l0.3-0.3c6-7.2,5.5-17.7-1.2-24.3
		C49.2,1.9,44.7,0,39.8,0S30.5,1.9,27,5.3c-2.9,2.9-4.6,6.4-5.1,10.4c0.4,0.1,0.9,0.2,1.3,0.3c0.5-3.6,2.1-7,4.8-9.7
		c3.1-3.1,7.3-4.9,11.8-4.9s8.7,1.7,11.8,4.9c6.2,6.2,6.6,16.3,0.8,22.9l-0.1,0.1l-0.2,0.1c-0.2,0.1-0.2,0.5-0.1,0.7
		c0.7,1.4,1.4,2.5,2.3,3.4l1.4,1.3L54,34.5c-1.8-0.2-3.5-0.8-4.9-2c-0.2-0.2-0.6-0.2-0.8,0c-2.6,1.5-5.5,2.3-8.5,2.3h0
		c0,0.4,0.1,0.9,0.1,1.3c3,0,5.8-0.7,8.4-2.1l0.3-0.2l0.3,0.2c2.3,1.5,4.5,1.8,5.9,1.8c0.5,0,0.9,0,1.4-0.1c0.6-0.1,1-0.5,1.1-1.1
		C57.4,34,57.2,33.5,56.6,33.2z"/>
	<path id="XMLID_245_" class="st0" d="M18.3,18.9c-4.8,0-9.4,1.9-12.8,5.3c-6.7,6.6-7.2,17-1.2,24.3l0.3,0.3l-0.2,0.4
		c-0.8,1.4-1.8,2.4-2.9,2.9c-0.5,0.2-0.8,0.8-0.7,1.4c0.1,0.6,0.5,1,1.1,1.1c0.5,0.1,0.9,0.1,1.4,0.1c1.4,0,3.6-0.3,5.9-1.8l0.3-0.2
		l0.3,0.2c2.6,1.4,5.5,2.1,8.5,2.1c4.8,0,9.4-1.9,12.8-5.3c3.4-3.4,5.3-7.9,5.3-12.8c0-4.8-1.9-9.3-5.3-12.8
		C27.7,20.7,23.2,18.9,18.3,18.9z M30.1,48.7c-3.1,3.1-7.4,4.9-11.8,4.9c-3,0-5.9-0.8-8.4-2.3c-0.3-0.2-0.6-0.2-0.8-0.1
		c-1.5,1.1-3.1,1.8-4.9,2l-1.9,0.2l1.4-1.3c0.9-0.9,1.7-2,2.4-3.4c0.1-0.3,0.1-0.6-0.1-0.7L5.7,48l-0.1-0.1
		c-5.8-6.6-5.4-16.7,0.8-22.9c3.2-3.2,7.4-4.9,11.8-4.9s8.7,1.7,11.8,4.9c3.2,3.1,4.9,7.3,4.9,11.8C35.1,41.4,33.3,45.6,30.1,48.7z"
		/>
</g>
</svg>
