<?xml version="1.0" encoding="utf-8"?>
<!-- Generator: Adobe Illustrator 19.2.0, SVG Export Plug-In . SVG Version: 6.00 Build 0)  -->
<svg version="1.1" id="Слой_1" xmlns="http://www.w3.org/2000/svg" xmlns:xlink="http://www.w3.org/1999/xlink" x="0px" y="0px"
	 width="43.7px" height="38.4px" viewBox="0 0 43.7 38.4" style="enable-background:new 0 0 43.7 38.4;" xml:space="preserve">
<style type="text/css">
	.st0{fill:#13110C;}
</style>
<g id="XMLID_310_">
	<path id="XMLID_316_" class="st0" d="M43.6,4c-0.1-0.1-0.2-0.2-0.4-0.2H16c-0.4,0-0.5,0.4-0.5,0.5c0,0.2,0,0.5,0.5,0.5h26.5l-0.2,1
		c-1.1,4.7-2.1,9.4-3.2,14L39,20.5H16.4l-7.2-20C9.2,0.3,9,0,8.7,0H0.5C0,0,0,0.4,0,0.5c0,0.2,0,0.5,0.5,0.5h7.8l7.2,20l2.3,5.5
		c0.2,0.5,0.4,0.5,0.6,0.5h19.3c0.4,0,0.5-0.4,0.5-0.5c0-0.2,0-0.5-0.5-0.5h-19l-1.9-4.5h22.6c0.2,0,0.5-0.2,0.5-0.4l3.8-16.7
		C43.8,4.3,43.7,4.1,43.6,4z"/>
	<path id="XMLID_333_" class="st0" d="M22.6,29.4c-2.5,0-4.5,2-4.5,4.5s2,4.5,4.5,4.5c2.5,0,4.5-2,4.5-4.5S25.1,29.4,22.6,29.4z
		 M22.6,37.3c-1.9,0-3.4-1.5-3.4-3.4s1.5-3.4,3.4-3.4c1.9,0,3.4,1.5,3.4,3.4S24.5,37.3,22.6,37.3z"/>
	<path id="XMLID_347_" class="st0" d="M33.7,29.4c-2.5,0-4.5,2-4.5,4.5s2,4.5,4.5,4.5s4.5-2,4.5-4.5S36.2,29.4,33.7,29.4z
		 M33.7,37.3c-1.9,0-3.4-1.5-3.4-3.4s1.5-3.4,3.4-3.4c1.9,0,3.4,1.5,3.4,3.4S35.6,37.3,33.7,37.3z"/>
</g>
</svg>
