<?xml version="1.0" encoding="utf-8"?>
<!-- Generator: Adobe Illustrator 19.2.0, SVG Export Plug-In . SVG Version: 6.00 Build 0)  -->
<svg version="1.1" id="Слой_1" xmlns="http://www.w3.org/2000/svg" xmlns:xlink="http://www.w3.org/1999/xlink" x="0px" y="0px"
	 width="82.1px" height="55.6px" viewBox="0 0 82.1 55.6" style="enable-background:new 0 0 82.1 55.6;" xml:space="preserve">
<style type="text/css">
	.st0{fill:#FF3BC1;}
</style>
<g id="XMLID_306_">
	<path id="XMLID_384_" class="st0" d="M11.8,44.8h21.6c0.4,0,0.8-0.3,0.8-0.8c0-0.4-0.3-0.8-0.8-0.8H11.8c-0.4,0-0.8,0.3-0.8,0.8
		C11,44.5,11.4,44.8,11.8,44.8z"/>
	<path id="XMLID_393_" class="st0" d="M73.4,0.2H8.2c-4.4,0-7.9,3.6-7.9,7.9v39.6c0,4.4,3.6,7.9,7.9,7.9h65.2c4.4,0,7.9-3.6,7.9-7.9
		V8.1C81.3,3.7,77.8,0.2,73.4,0.2z M79.8,47.7c0,3.5-2.9,6.4-6.4,6.4H8.2c-3.5,0-6.4-2.9-6.4-6.4V23.3h78V47.7z M79.8,21.7h-78v-9.3
		h78V21.7z M79.8,11h-78V8.1c0-3.5,2.9-6.4,6.4-6.4h65.2c3.5,0,6.4,2.9,6.4,6.4V11z"/>
	<path id="XMLID_422_" class="st0" d="M54.5,44.8h15.3c0.4,0,0.8-0.3,0.8-0.8V33.3c0-0.4-0.3-0.8-0.8-0.8H54.5
		c-0.4,0-0.8,0.3-0.8,0.8v10.8C53.7,44.5,54.1,44.8,54.5,44.8z M55.3,34.1H69v9.3H55.3V34.1z"/>
	<path id="XMLID_435_" class="st0" d="M11.8,34.1h10.8c0.4,0,0.8-0.3,0.8-0.8c0-0.4-0.3-0.8-0.8-0.8H11.8c-0.4,0-0.8,0.3-0.8,0.8
		C11,33.7,11.4,34.1,11.8,34.1z"/>
</g>
</svg>
