<?xml version="1.0" encoding="utf-8"?>
<!-- Generator: Adobe Illustrator 19.2.0, SVG Export Plug-In . SVG Version: 6.00 Build 0)  -->
<svg version="1.1" id="Слой_1" xmlns="http://www.w3.org/2000/svg" xmlns:xlink="http://www.w3.org/1999/xlink" x="0px" y="0px"
	 width="42px" height="64px" viewBox="0 0 42 64" style="enable-background:new 0 0 42 64;" xml:space="preserve">
<style type="text/css">
	.st0{fill:#6F8BC6;}
</style>
<g id="XMLID_308_">
	<path id="XMLID_349_" class="st0" d="M21.2,32.2c-5.3,0-9.6,4.3-9.6,9.7c0,5.3,4.3,9.7,9.6,9.7c5.3,0,9.6-4.3,9.6-9.7
		C30.8,36.5,26.5,32.2,21.2,32.2z M21.2,50c-4.5,0-8.1-3.7-8.1-8.1c0-4.5,3.6-8.1,8.1-8.1c4.5,0,8.1,3.7,8.1,8.1
		C29.3,46.3,25.7,50,21.2,50z"/>
	<path id="XMLID_362_" class="st0" d="M21.2,36.6c-2.9,0-5.2,2.4-5.2,5.3c0,2.9,2.4,5.3,5.2,5.3c2.9,0,5.2-2.4,5.2-5.3
		C26.4,38.9,24.1,36.6,21.2,36.6z M21.2,45.8c-2.2,0-4-1.8-4-4c0-2.2,1.8-4,4-4c2.2,0,4,1.8,4,4C25.2,44,23.4,45.8,21.2,45.8z"/>
	<path id="XMLID_363_" class="st0" d="M21.5,25.8c0.4,0,0.8-0.3,0.8-0.8v-6.8c0-0.4-0.3-0.8-0.8-0.8c-0.4,0-0.8,0.3-0.8,0.8V25
		C20.8,25.4,21.1,25.8,21.5,25.8z"/>
	<path id="XMLID_364_" class="st0" d="M14.3,30.4c0.4,0,0.8-0.3,0.8-0.8v-6.8c0-0.4-0.3-0.8-0.8-0.8s-0.8,0.3-0.8,0.8v6.8
		C13.6,30,13.9,30.4,14.3,30.4z"/>
	<path id="XMLID_365_" class="st0" d="M28.5,30.4c0.4,0,0.8-0.3,0.8-0.8v-6.8c0-0.4-0.3-0.8-0.8-0.8c-0.4,0-0.7,0.3-0.7,0.8v6.8
		C27.8,30,28.1,30.4,28.5,30.4z"/>
	<path id="XMLID_371_" class="st0" d="M41.2,13.5L41.2,13.5c-0.8-0.9-2.6-2.7-6.2-6.3l-6.7-6.7c-0.1,0-0.1,0-0.2-0.1
		c-0.1,0-0.2,0-0.3-0.1H1.5c-0.4,0-0.8,0.4-0.8,0.8v61.6c0,0.3,0.2,0.6,0.5,0.8c0.2,0.1,0.6,0,0.9-0.1l3.4-3.1l3.4,3
		c0.3,0.3,0.7,0.3,1.1,0l3.4-3l3.4,3c0.3,0.3,0.7,0.3,1.1,0l3.4-3l3.4,3c0.3,0.3,0.7,0.3,1.1,0l3.4-3l3.4,3c0.3,0.3,0.7,0.3,1.1,0
		l3.4-3l3.4,3c0.3,0.2,0.7,0.3,0.8,0.2c0.3-0.1,0.5-0.4,0.5-0.8V14.1C41.6,13.9,41.5,13.8,41.2,13.5z M28.6,3L39,13.5H28.6V3z
		 M40.1,61l-2.6-2.4c-0.3-0.3-0.7-0.3-1.1,0l-3.4,3l-3.4-3c-0.3-0.3-0.7-0.3-1.1,0l-3.4,3l-3.4-3c-0.3-0.3-0.7-0.3-1.1,0l-3.4,3
		l-3.4-3c-0.3-0.3-0.7-0.3-1.1,0l-3.4,3l-3.4-3c-0.2-0.2-0.3-0.2-0.5-0.2c-0.2,0-0.4,0-0.5,0.2L2.3,61V1.9H27v12.4
		c0,0.4,0.4,0.8,0.8,0.8h12.3V61z"/>
</g>
</svg>
