<?xml version="1.0" encoding="utf-8"?>
<!-- Generator: Adobe Illustrator 19.2.0, SVG Export Plug-In . SVG Version: 6.00 Build 0)  -->
<svg version="1.1" id="Слой_1" xmlns="http://www.w3.org/2000/svg" xmlns:xlink="http://www.w3.org/1999/xlink" x="0px" y="0px"
	 width="56px" height="55px" viewBox="0 0 56 55" style="enable-background:new 0 0 56 55;" xml:space="preserve">
<style type="text/css">
	.st0{fill:#85B6C2;}
</style>
<g id="XMLID_350_">
	<path id="XMLID_351_" class="st0" d="M32.6,45.3c1.4-1.2,2.1-2.9,2.1-5.1c0-1.9-0.6-3.4-1.9-4.5c-1.3-1.1-3-1.6-5.2-1.6
		c-1.1,0-2.2,0.1-3.3,0.3l0.5-6.3h8.4V26H22.8L22,35.8l1.2,0.8c1.5-0.3,2.7-0.4,3.6-0.4c3.6,0,5.4,1.5,5.4,4.4
		c0,1.5-0.5,2.6-1.4,3.4c-0.9,0.8-2.2,1.2-3.9,1.2c-1,0-1.9-0.1-2.9-0.4c-1-0.2-1.8-0.6-2.5-1V46c1.2,0.8,3,1.1,5.4,1.1
		C29.3,47.2,31.2,46.6,32.6,45.3z"/>
	<rect id="XMLID_440_" x="15.4" y="0.9" class="st0" width="1.4" height="7.7"/>
	<rect id="XMLID_441_" x="39.4" y="0.9" class="st0" width="1.4" height="7.7"/>
	<rect id="XMLID_442_" x="21.9" y="4.3" class="st0" width="12.2" height="1.4"/>
	<path id="XMLID_445_" class="st0" d="M49,4.3h-2.6v1.4H49c3.1,0,5.6,2.5,5.6,5.7v6.8h-53v-6.8c0-3.1,2.6-5.7,5.8-5.7H10V4.3H7.4
		c-4,0-7.2,3.2-7.2,7.1v36.6c0,3.9,3.2,7.1,7.2,7.1H49c3.9,0,7-3.2,7-7.1V11.3C56,7.4,52.9,4.3,49,4.3z M54.6,47.9
		c0,3.2-2.5,5.7-5.6,5.7H7.4c-3.2,0-5.8-2.6-5.8-5.7V19.6h53V47.9z"/>
</g>
</svg>
