<?xml version="1.0" encoding="utf-8"?>
<!-- Generator: Adobe Illustrator 19.2.0, SVG Export Plug-In . SVG Version: 6.00 Build 0)  -->
<svg version="1.1" id="Слой_1" xmlns="http://www.w3.org/2000/svg" xmlns:xlink="http://www.w3.org/1999/xlink" x="0px" y="0px"
	 width="57.7px" height="55.3px" viewBox="0 0 57.7 55.3" style="enable-background:new 0 0 57.7 55.3;" xml:space="preserve">
<style type="text/css">
	.st0{fill:#85B7C3;}
</style>
<path id="XMLID_524_" class="st0" d="M56.8,48.9H44l0-0.1l-9-28.2l0-0.1c0.2-0.4,0.4-0.8,0.6-1.3l0-0.1l0.1,0l12.1-2.3l2.7,7.6
	c0.1,0.3,0.4,0.5,0.7,0.5h0.1l5.7-1.1c0.3-0.1,0.6-0.3,0.6-0.7l-0.2-11.4c0-0.1,0-0.1,0-0.2L53.5,0.7c-0.1-0.3-0.4-0.5-0.7-0.4
	L47,1.4c-0.3,0.1-0.6,0.3-0.6,0.7l0.2,8.1l-12,2.2l-0.1-0.1c-1.4-1.9-3.6-2.9-5.9-2.9c-3.2,0-6.2,2.2-7.1,5.4l0,0.1l-0.1,0L1.7,18.5
	c-0.4,0.1-0.6,0.4-0.5,0.8l1,5.4l1.7,24.2H0.7c-0.4,0-0.7,0.3-0.7,0.7v5c0,0.4,0.3,0.7,0.7,0.7h56.1c0.4,0,0.7-0.3,0.7-0.7v-5
	C57.4,49.2,57.1,48.9,56.8,48.9z M48,2.6l4.5-0.9l0.1,0.1l3.6,9.9l0.2,10.7l-0.2,0l-4.5,0.9l-0.1-0.1l-3.6-9.9l0-2.6c0,0,0,0,0,0
	l-0.2-8L48,2.6z M46.7,11.6l0.1,2c0,0.1,0,0.1,0,0.2l0.7,1.8L36,17.7l0.1-0.3c0-0.2,0-0.4,0-0.6c0-1-0.2-2-0.6-2.9l-0.1-0.2
	L46.7,11.6z M42.6,48.9h-4.2l0-0.1L30.4,24l0.2,0c1.2-0.3,2.3-0.9,3.2-1.8L34,22L42.6,48.9z M20.6,48.7l7.9-24.5h0.1
	c0,0,0.1,0,0.1,0l0.1,0l0.2,0l0,0.1l7.9,24.6H20.5L20.6,48.7z M19.1,48.9h-4.2l0.1-0.2L23.4,22l0.2,0.2c0.6,0.5,1.2,1,2,1.3l0.1,0
	c0.2,0.1,0.4,0.2,0.6,0.2l0.2,0.1c0.1,0,0.1,0,0.2,0.1c0.1,0,0.1,0.1,0.2,0.1l0.2,0L27,24.2L19.1,48.9z M22.8,15.6
	c0.6-2.8,3-4.8,5.9-4.8c2,0,3.9,1,5,2.8c0.6,0.9,1,2,1,3.2c0,0.6-0.1,1.1-0.2,1.5c0,0,0,0,0,0c0,0,0,0,0,0.1
	c-0.2,0.6-0.4,1.1-0.8,1.7c-0.1,0.1-0.1,0.1-0.1,0.1c-1,1.5-2.6,2.4-4.3,2.6c0,0,0,0,0,0c0,0,0,0-0.1,0l0,0c-0.2,0-0.3,0-0.5,0
	c-0.2,0-0.4,0-0.6,0c-1.7-0.2-3.2-1.1-4.2-2.4l-0.2-0.2c-0.7-1-1.1-2.2-1.1-3.4C22.7,16.4,22.7,16,22.8,15.6z M2.7,19.8l0.2,0
	l18.5-3.4v0.5c0,0.3,0,0.6,0.1,1c0,0.1,0,0.1,0,0.2l0,0.1c0,0.2,0.1,0.5,0.2,0.7c0,0.1,0.1,0.2,0.1,0.4c0.1,0.2,0.1,0.4,0.2,0.6
	c0,0,0,0.1,0.1,0.1c0,0.1,0.1,0.1,0.1,0.2l0.1,0.2L3.4,23.7L2.7,19.8z M3.6,25.1l18.5-3.5l-0.1,0.3l-8.6,27H5.3l0-0.2L3.6,25.1z
	 M56,53.9H1.4v-3.6h3.3c0,0,0.1,0,0.1,0c0,0,0,0,0,0l0.1,0H56V53.9z"/>
</svg>
