<?xml version="1.0" encoding="utf-8"?>
<!-- Generator: Adobe Illustrator 19.2.0, SVG Export Plug-In . SVG Version: 6.00 Build 0)  -->
<svg version="1.1" id="Слой_1" xmlns="http://www.w3.org/2000/svg" xmlns:xlink="http://www.w3.org/1999/xlink" x="0px" y="0px"
	 width="61.9px" height="48px" viewBox="0 0 61.9 48" style="enable-background:new 0 0 61.9 48;" xml:space="preserve">
<style type="text/css">
	.st0{fill:#85B6C2;}
</style>
<g id="XMLID_429_">
	<path id="XMLID_439_" class="st0" d="M42.9,26.8H18.4c-0.4,0-0.6,0.3-0.6,0.6c0,0.4,0.3,0.6,0.6,0.6h24.4c0.4,0,0.6-0.3,0.6-0.6
		C43.6,27,43.2,26.8,42.9,26.8z"/>
	<path id="XMLID_456_" class="st0" d="M58.3,19.7l-0.7-0.6l0.9-0.3c1.7-0.4,2.8-2,2.8-3.7c0-2.2-1.8-4-4-4H54l-1.6-4.7
		C50.4,0.1,44.1,0,44,0H17.3c-0.3,0-6.4,0.1-8.4,6.3l-1.6,4.8H4c-2.2,0-4,1.8-4,4c0,1.8,1.2,3.3,2.8,3.8l0.8,0.3L3,19.7
		c-2,1.7-3,4-3,6.5v8.9c0,1,0.6,2,2,2.8L2.3,38v8.2c0,1,0.7,1.8,1.8,1.8h6.6c1,0,1.8-0.7,1.8-1.8v-5.7l0.5,0.1
		c4.7,0.5,10.6,0.7,17.8,0.7c4.3,0,11.4,0,17.8-0.7l0.5-0.1v5.7c0,1,0.7,1.8,1.8,1.8h6.7c1,0,1.8-0.7,1.8-1.8V38l0.3-0.2
		c1.3-0.8,2-1.7,2-2.8v-8.9C61.3,23.7,60.3,21.4,58.3,19.7z M57.3,12.4c1.5,0,2.7,1.2,2.7,2.7s-1.2,2.7-2.7,2.7h-1.1l-1.8-5.4
		L57.3,12.4L57.3,12.4z M10,6.8c0.7-2.2,2.1-3.9,4.3-4.8c0.9-0.4,2-0.7,2.9-0.7h26.7c0.9,0,2.1,0.3,2.9,0.7c2,0.9,3.6,2.6,4.3,4.8
		l3.8,11H6.4L10,6.8z M1.2,15.1c0-1.5,1.2-2.7,2.7-2.7h2.9l-1.8,5.4H4C2.5,17.8,1.2,16.6,1.2,15.1z M11.1,46.8H3.5v-8.2l0.6,0.3
		c1.9,0.6,4.1,1.2,6.6,1.4l0.4,0.1V46.8z M57.9,46.8h-7.6v-6.3l0.4-0.1c2.9-0.4,5-0.9,6.6-1.4l0.6-0.3V46.8z M60.2,35.6H60
		c-0.4,0.9-2,1.7-4.6,2.5c-2.9,0.8-6.6,1.3-10.8,1.6c-4.1,0.3-8.4,0.4-13.9,0.4c-5.6,0-9.9-0.1-13.9-0.4c-3.2-0.2-7.3-0.5-10.8-1.6
		c-3-0.9-4.4-1.8-4.7-2.8v-0.3v-8.9c0-3.9,3.2-7.2,7.2-7.2h44.5c3.9,0,7.1,3.2,7.1,7.2L60.2,35.6L60.2,35.6z"/>
	<path id="XMLID_474_" class="st0" d="M52.9,24.5c-2.2,0-4,1.8-4,4s1.8,4,4,4s4-1.8,4-4S55.1,24.5,52.9,24.5z M52.9,31.2
		c-1.5,0-2.7-1.2-2.7-2.7c0-1.5,1.2-2.7,2.7-2.7s2.7,1.2,2.7,2.7C55.6,30,54.4,31.2,52.9,31.2z"/>
	<path id="XMLID_475_" class="st0" d="M40.7,31.2H20.6c-0.4,0-0.6,0.3-0.6,0.6c0,0.4,0.3,0.6,0.6,0.6h20c0.4,0,0.6-0.3,0.6-0.6
		C41.3,31.5,41,31.2,40.7,31.2z"/>
	<path id="XMLID_478_" class="st0" d="M8.4,24.5c-2.2,0-4,1.8-4,3.9s1.8,4,4,4s4-1.8,4-4S10.6,24.5,8.4,24.5z M8.4,31.2
		c-1.5,0-2.7-1.2-2.7-2.7c0-1.5,1.2-2.7,2.7-2.7s2.7,1.2,2.7,2.7C11.1,30,10,31.2,8.4,31.2z"/>
</g>
</svg>
