<?xml version="1.0" encoding="utf-8"?>
<!-- Generator: Adobe Illustrator 19.2.0, SVG Export Plug-In . SVG Version: 6.00 Build 0)  -->
<svg version="1.1" id="Слой_1" xmlns="http://www.w3.org/2000/svg" xmlns:xlink="http://www.w3.org/1999/xlink" x="0px" y="0px"
	 width="118px" height="25px" viewBox="0 0 118 25" style="enable-background:new 0 0 118 25;" xml:space="preserve">
<style type="text/css">
	.st0{fill:#FFFFFF;}
</style>
<g>
	<path class="st0" d="M30.2,11.4c-1-5.2-5.5-9.1-10.9-9.1c-2.3,0-4.5,0.7-6.3,1.9c0,0,15.7,7.4,15.7,7.4
		C30.1,12.3,30.2,11.4,30.2,11.4z"/>
	<path class="st0" d="M27.7,20.7c0,0-0.3,0.2-0.8,0c0,0-15-5.8-18.1-7c-0.5-0.2-0.7,0.2-0.7,0.4c0.3,5.9,5.2,10.5,11.1,10.5
		C22.6,24.6,25.7,23.1,27.7,20.7z"/>
	<path class="st0" d="M7.4,12.4c0-0.3,0.1-0.6,0.7-0.3c0.5,0.2,18.9,7.8,19,7.9c0.6,0.2,1.1,0.2,1.3-0.1c0.4-0.5,0.7-1.1,0.9-1.7
		c-0.2,0.3-0.8,1.1-1.6,0.8C27.6,18.9,7,10.1,6.8,10c-0.7-0.3-1.2,0.4-0.7,1c0.1,0.1,1.7,2.2,1.7,2.2S7.4,12.7,7.4,12.4z"/>
	<path class="st0" d="M2.4,2.9c0,0,26.2,11.8,26.4,11.8c0.6,0.3,1.5,0.1,1.5-0.6c0-0.2,0-0.4,0-0.7c0-0.4,0-0.8-0.1-1.3
		c0,0.3-0.2,1.5-1.5,0.9C28.5,13,1.6,0.3,1.2,0.1C0.7-0.2-0.4,0.2,0.2,1.4c0,0,2.2,3.5,2.1,3.5c0-0.1-0.4-0.8-0.5-1.6
		C1.7,3,2,2.7,2.4,2.9z"/>
	<path class="st0" d="M5,7.6c0.2,0.1,22.9,10,23,10.1c0.8,0.4,1.5,0.1,1.8-0.5c0.2-0.5,0.3-1.1,0.4-1.6c-0.1,0.3-0.6,1.3-1.7,0.9
		C28.4,16.4,4.3,5.3,4.1,5.2C3.4,4.9,2.5,5.6,3,6.4c0.1,0.1,2,2.9,2,2.9S4.4,8.4,4.5,7.9C4.5,7.6,4.8,7.5,5,7.6z"/>
	<path class="st0" d="M100.7,10.5c0.4,0.1,0.6,0.3,0.7,0.6c0.1,0.3,0.2,1,0.2,2.1v3.4h-2.9v-3.4c0-1.1,0.1-1.8,0.2-2.1
		c0.1-0.3,0.4-0.5,0.7-0.6V9.7h-4.7v0.8c0.4,0.1,0.7,0.3,0.8,0.6c0.1,0.2,0.2,0.9,0.2,2.1v8.1c0,1.2,0,1.8-0.2,2.1
		c-0.2,0.4-0.4,0.5-0.8,0.6v0.8h4.7V24c-0.3-0.1-0.6-0.3-0.7-0.6c-0.1-0.3-0.2-1-0.2-2.1v-3.6h2.9v3.6c0,1.1-0.1,1.8-0.2,2.1
		c-0.1,0.3-0.4,0.5-0.7,0.6v0.8h4.7V24c-0.4-0.1-0.7-0.3-0.8-0.6c-0.1-0.2-0.2-0.9-0.2-2.1v-8.1c0-1.2,0.1-1.9,0.2-2.1
		c0.2-0.3,0.4-0.6,0.8-0.6V9.7h-4.7V10.5z"/>
	<path class="st0" d="M40.3,24c-0.6,0-1.1-0.2-1.3-0.5c-0.3-0.3-0.5-0.8-0.6-1.3c0-0.2,0-0.9,0-2l0-14l4.9,18.6h0.6l4.7-18.3v14.3
		c0,1.1,0,1.8-0.1,2c-0.1,0.4-0.2,0.6-0.4,0.8c-0.3,0.2-0.6,0.3-1,0.3h-0.4v0.8h7V24h-0.4c-0.4,0-0.7-0.1-0.9-0.3
		c-0.2-0.2-0.4-0.5-0.4-0.7c-0.1-0.3-0.1-1-0.1-2.1V6.9c0-1.1,0-1.8,0.1-2c0.1-0.3,0.2-0.6,0.4-0.8c0.2-0.2,0.6-0.3,0.9-0.3h0.4V3
		h-5.4l-3.6,14.4L40.9,3h-5.5v0.8h0.4c0.4,0,0.7,0.1,0.9,0.3c0.2,0.2,0.4,0.4,0.4,0.7c0.1,0.3,0.1,1,0.1,2.1v13.4c0,1,0,1.5,0,1.6
		c-0.1,0.5-0.2,0.9-0.3,1.2c-0.1,0.3-0.3,0.5-0.6,0.7c-0.2,0.2-0.5,0.2-0.8,0.2h-0.1v0.8h4.9V24z"/>
	<path class="st0" d="M117.2,23.4c-0.2-0.3-0.7-1.2-1.6-3.3l-2.2-5.2c0,0,2-3.3,2.7-3.8c0.3-0.3,0.6-0.4,1-0.5V9.7h-4.1v0.8
		c1.4,0,1.3,1.2,0.9,1.8c-0.1,0.2-3,4.7-3,4.7V3h-3.7v0.8c0.4,0.1,0.7,0.3,0.8,0.6c0.1,0.3,0.2,1,0.2,2.1v14.8
		c0,1.1-0.1,1.8-0.2,2.1c-0.2,0.4-0.4,0.5-0.8,0.6v0.8h4.8V24c-0.4-0.1-0.7-0.3-0.8-0.5c-0.1-0.3-0.2-0.5-0.2-2.1v-2.5l0.6-1
		l1.8,4.1c0.3,0.7,0.4,1.1,0.4,1.4c0,0.2-0.1,0.3-0.1,0.4c-0.1,0.1-0.2,0.2-0.5,0.2v0.8h4.8V24C117.7,23.9,117.4,23.7,117.2,23.4z"
		/>
	<path class="st0" d="M60.1,22.8c-0.1,0.4-0.2,0.6-0.4,0.8c-0.2,0.2-0.5,0.3-0.9,0.3h-0.4v0.8h7V24h-0.4c-0.4,0-0.7-0.1-0.9-0.3
		c-0.2-0.2-0.4-0.5-0.4-0.7c-0.1-0.3-0.1-1-0.1-2.1v-8V4.2h1c0.9,0,1.6,0.3,2,0.9C66.9,6,66.8,7.3,67,8.9h0.8V3h-12v5.9h0.8
		c0.2-1.6,0.1-2.9,0.6-3.7c0.4-0.6,1.1-0.9,2-0.9h1v16.6C60.2,21.9,60.2,22.6,60.1,22.8z"/>
	<path class="st0" d="M80.9,22.8c1.6-2.1,1.8-8.9,0.1-11.2c-1.5-2-4-2.2-6.3-2.2V4.2h0h2.6c0.9,0,1.5,0.3,2,0.9
		C79.9,6,79.8,7.3,80,8.9h0.8V3h-11v0.8c0.6,0,1,0.1,1.3,0.3c0.2,0.2,0.4,0.4,0.5,0.7c0.1,0.3,0.1,0.8,0.1,2v13.9
		c0,1.2,0,1.9-0.1,2.2c-0.1,0.3-0.2,0.6-0.5,0.7c-0.2,0.2-0.6,0.3-1.3,0.3v0.8h6.8C78.5,24.8,79.9,24.1,80.9,22.8z M75,23.2
		c-0.2-0.3-0.3-0.7-0.3-1.3l0-0.8V10.7c1,0,1.8,0.1,2.3,0.5c0.5,0.3,0.9,0.9,1.2,1.7c0.7,2,0.7,6.5,0.1,8.5c-0.2,0.7-0.6,1.3-1,1.7
		c-0.4,0.4-0.9,0.6-1.5,0.6C75.5,23.6,75.2,23.4,75,23.2z"/>
	<path class="st0" d="M92.1,22.5c-0.1-0.1-0.1-0.2-0.2-0.4c0-0.2,0-0.6,0-1.3v-5.5c0-1.6-0.1-2.7-0.1-3.1c-0.3-1.4-1.1-2.9-3.1-2.9
		c-0.7,0-1.4,0.2-2.1,0.6c-0.7,0.4-1.2,0.9-1.6,1.6c-0.4,0.7-0.5,1.3-0.6,2.3c0,1.3,0.7,1.8,1.5,1.8c0.8,0,1.4-0.6,1.4-1.4
		c0-0.3-0.1-0.5-0.2-0.8c-0.2-0.4-1.2-1.2-0.3-2.4c0.3-0.3,0.6-0.5,1.1-0.5c0.8,0,1,0.6,1.1,1.1c0.1,0.3,0.1,1,0.1,2.1v1.5
		c-2,1.5-3.3,2.7-3.9,3.7c-0.6,0.9-1,1.7-1,2.9c0,1.7,0.9,3.2,2.3,3.2c1.4,0,2.2-1,2.6-2.4c0.1,0.8,0.2,1.4,0.5,1.8
		c0.3,0.4,0.7,0.6,1.2,0.6c0.5,0,1-0.1,1.4-0.5c0.3-0.3,0.7-0.9,1-1.7l-0.6-0.5C92.6,22.7,92.2,22.6,92.1,22.5z M89.2,21.3
		c-1,1.7-3.3,0.6-2.1-1.9c0.4-0.9,1.3-2.3,2.1-3.1V21.3z"/>
</g>
</svg>
