<?xml version="1.0" encoding="utf-8"?>
<!-- Generator: Adobe Illustrator 19.2.0, SVG Export Plug-In . SVG Version: 6.00 Build 0)  -->
<svg version="1.1" id="Слой_1" xmlns="http://www.w3.org/2000/svg" xmlns:xlink="http://www.w3.org/1999/xlink" x="0px" y="0px"
	 width="69px" height="55px" viewBox="0 0 69 55" style="enable-background:new 0 0 69 55;" xml:space="preserve">
<style type="text/css">
	.st0{fill:#85B6C2;}
</style>
<g id="XMLID_429_">
	<path id="XMLID_439_" class="st0" d="M48.3,31.1H20.7c-0.4,0-0.7,0.3-0.7,0.7c0,0.4,0.3,0.7,0.7,0.7h27.5c0.4,0,0.7-0.3,0.7-0.7
		C49,31.4,48.6,31.1,48.3,31.1z"/>
	<path id="XMLID_456_" class="st0" d="M65.6,23.2l-0.8-0.7l1-0.3C67.7,21.8,69,20,69,18c0-2.5-2-4.5-4.5-4.5h-3.7L59,8.2
		C56.7,1.1,49.6,1,49.5,1h-30c-0.3,0-7.2,0.1-9.5,7.1l-1.8,5.4H4.5C2,13.5,0,15.5,0,18c0,2,1.3,3.7,3.2,4.3l0.9,0.3l-0.7,0.6
		C1.2,25.1,0,27.7,0,30.5v10c0,1.1,0.7,2.2,2.3,3.1l0.3,0.2V53c0,1.1,0.8,2,2,2H12c1.1,0,2-0.8,2-2v-6.4l0.6,0.1
		c5.3,0.6,11.9,0.8,20,0.8c4.8,0,12.8,0,20-0.8l0.6-0.1V53c0,1.1,0.8,2,2,2h7.5c1.1,0,2-0.8,2-2v-9.2l0.3-0.2
		c1.5-0.9,2.2-1.9,2.2-3.1v-10C69,27.7,67.8,25.1,65.6,23.2z M64.5,15c1.7,0,3,1.3,3,3c0,1.7-1.3,3-3,3h-1.2l-2-6.1H64.5z M11.3,8.6
		c0.8-2.5,2.4-4.4,4.8-5.4c1-0.4,2.3-0.8,3.3-0.8h30c1,0,2.4,0.3,3.3,0.8c2.3,1,4,2.9,4.8,5.4L61.8,21H7.2L11.3,8.6z M1.4,18
		c0-1.7,1.3-3,3-3h3.3l-2,6.1H4.5C2.8,21,1.4,19.7,1.4,18z M12.5,53.6H3.9v-9.2l0.7,0.3c2.1,0.7,4.6,1.3,7.4,1.6l0.5,0.1V53.6z
		 M65.1,53.6h-8.6v-7.1l0.5-0.1c3.3-0.5,5.6-1,7.4-1.6l0.7-0.3V53.6z M67.7,41.1h-0.2c-0.5,1-2.2,1.9-5.2,2.8
		c-3.3,0.9-7.4,1.5-12.1,1.8c-4.6,0.3-9.4,0.4-15.6,0.4c-6.3,0-11.1-0.1-15.6-0.4c-3.6-0.2-8.2-0.6-12.1-1.8c-3.4-1-5-2-5.3-3.1
		l0-0.3v-10c0-4.4,3.6-8.1,8.1-8.1h50.1c4.4,0,8,3.6,8,8.1V41.1z"/>
	<path id="XMLID_474_" class="st0" d="M59.5,28.6c-2.5,0-4.5,2-4.5,4.5s2,4.5,4.5,4.5c2.5,0,4.5-2,4.5-4.5S62,28.6,59.5,28.6z
		 M59.5,36.1c-1.7,0-3-1.3-3-3c0-1.7,1.3-3,3-3c1.7,0,3,1.3,3,3C62.6,34.7,61.2,36.1,59.5,36.1z"/>
	<path id="XMLID_475_" class="st0" d="M45.8,36.1H23.2c-0.4,0-0.7,0.3-0.7,0.7c0,0.4,0.3,0.7,0.7,0.7h22.5c0.4,0,0.7-0.3,0.7-0.7
		C46.5,36.4,46.1,36.1,45.8,36.1z"/>
	<path id="XMLID_478_" class="st0" d="M9.5,28.6C7,28.6,5,30.6,5,33s2,4.5,4.5,4.5s4.5-2,4.5-4.5S11.9,28.6,9.5,28.6z M9.5,36.1
		c-1.7,0-3-1.3-3-3c0-1.7,1.3-3,3-3s3,1.3,3,3C12.5,34.7,11.2,36.1,9.5,36.1z"/>
</g>
</svg>
