<?xml version="1.0" encoding="utf-8"?>
<!-- Generator: Adobe Illustrator 19.2.0, SVG Export Plug-In . SVG Version: 6.00 Build 0)  -->
<svg version="1.1" id="Слой_1" xmlns="http://www.w3.org/2000/svg" xmlns:xlink="http://www.w3.org/1999/xlink" x="0px" y="0px"
	 width="50px" height="59px" viewBox="0 0 50 59" style="enable-background:new 0 0 50 59;" xml:space="preserve">
<style type="text/css">
	.st0{fill:#85B7C3;}
</style>
<g id="XMLID_368_">
	<path id="XMLID_408_" class="st0" d="M29.5,31.3c4.9,0,8.9-3.9,8.9-8.8s-4-8.8-8.9-8.8s-8.9,3.9-8.9,8.8
		C20.6,27.3,24.6,31.3,29.5,31.3z M22.1,22.5c0-4.1,3.4-7.4,7.4-7.4s7.4,3.4,7.4,7.4S33.6,30,29.5,30C25.4,29.9,22.1,26.6,22.1,22.5
		z"/>
	<path id="XMLID_411_" class="st0" d="M29.5,27.3c2.6,0,4.9-2.2,4.9-4.8s-2.2-4.8-4.9-4.8c-2.6,0-4.8,2.2-4.8,4.8
		S26.9,27.3,29.5,27.3z M25.8,22.5c0-2,1.7-3.6,3.7-3.6s3.7,1.6,3.7,3.6s-1.6,3.6-3.7,3.6C27.5,26.1,25.8,24.5,25.8,22.5z"/>
	<path id="XMLID_414_" class="st0" d="M49.4,40.5L49.4,40.5c-1.2-1.8-3.5-1.4-4.6-0.8l-9.6,4.8h-9.5c-0.8,0-1.5-0.6-1.5-1.5
		c0-0.8,0.6-1.4,1.5-1.4h6.9c1.8,0,3.3-1.3,3.4-3c0.1-0.5,0.2-2.9-2.2-3.4c-2.6-0.5-9.2-0.4-11.5-0.3c-4.2,0.2-6.6,1.8-7,2.1
		l-6.2,3.6l-0.4-1c-0.1-0.2-0.2-0.3-0.3-0.4C8.3,39,8.1,39,8,39.1l-7.1,2.6c-0.3,0.2-0.5,0.5-0.4,0.9l5.8,15.4
		c0.1,0.2,0.2,0.3,0.3,0.4c0.1,0.1,0.2,0.1,0.3,0.1s0.2,0,0.2,0l7.1-2.6c0.3-0.2,0.5-0.5,0.4-0.9l-1-2.9h22.2
		c0.7-0.1,1.3-0.2,1.8-0.6l10.8-6.8c0.2-0.1,1.4-0.9,1.7-2.2C50.1,41.9,49.9,41.2,49.4,40.5z M7.8,40.6l5.3,14.2l-5.9,2.2L1.9,42.8
		L7.8,40.6z M22.9,43c0,1.5,1.3,2.8,2.8,2.8h9.8l9.9-5c0.6-0.3,2.2-0.8,2.9,0.3c0.3,0.4,0.4,0.9,0.3,1.3l0,0c-0.2,0.7-1,1.3-1,1.3
		l-10.8,6.8c-0.2,0.2-0.6,0.3-1.1,0.3H13l-3.4-9l7.2-4.2c1.1-0.6,3-1.4,4.8-1.4h11c0.6,0,1.1,0.2,1.5,0.6c0.4,0.4,0.6,1,0.5,1.6
		c-0.1,1-1,1.8-2.2,1.8h-6.9C24.2,40.2,22.9,41.5,22.9,43z M49.3,40.5L49.3,40.5L49.3,40.5L49.3,40.5z"/>
	<path id="XMLID_417_" class="st0" d="M29.8,7.9c0.4,0,0.7-0.3,0.7-0.7V1c0-0.4-0.3-0.7-0.7-0.7c-0.4,0-0.7,0.3-0.7,0.7v6.2
		C29.1,7.6,29.4,7.9,29.8,7.9z"/>
	<path id="XMLID_418_" class="st0" d="M23.2,12.1c0.4,0,0.7-0.3,0.7-0.7V5.3c0-0.4-0.3-0.7-0.7-0.7c-0.4,0-0.7,0.3-0.7,0.7v6.2
		C22.5,11.8,22.8,12.1,23.2,12.1z"/>
	<path id="XMLID_419_" class="st0" d="M36.2,12.1c0.4,0,0.7-0.3,0.7-0.7V5.3c0-0.4-0.3-0.7-0.7-0.7s-0.7,0.3-0.7,0.7v6.2
		C35.6,11.8,35.9,12.1,36.2,12.1z"/>
</g>
</svg>
