<?xml version="1.0" encoding="utf-8"?>
<!-- Generator: Adobe Illustrator 19.2.0, SVG Export Plug-In . SVG Version: 6.00 Build 0)  -->
<svg version="1.1" id="Слой_1" xmlns="http://www.w3.org/2000/svg" xmlns:xlink="http://www.w3.org/1999/xlink" x="0px" y="0px"
	 width="63px" height="55px" viewBox="0 0 63 55" style="enable-background:new 0 0 63 55;" xml:space="preserve">
<style type="text/css">
	.st0{fill:#85B7C3;}
</style>
<g id="XMLID_430_">
	<path id="XMLID_438_" class="st0" d="M23.4,49.5c-2.9-2.4-5.8-3.9-6.4-4.2l-0.1,0v-3.8l0,0c0.6-0.5,0.9-1.3,0.9-2.1v-4.7
		c0-2.7-2.2-5-4.9-5h-1c-2.7,0-4.9,2.2-4.9,5v4.7c0,0.8,0.3,1.6,0.9,2.1l0,0v3.8l-0.1,0c-0.6,0.3-3.6,1.8-6.4,4.2
		c-0.7,0.6-1.1,1.4-1.1,2.3V55h1.4v-3.2c0-0.5,0.2-0.9,0.6-1.2c2.9-2.4,5.9-4,6.5-4.2c0.3-0.2,0.5-0.5,0.5-0.8V41
		c0-0.2-0.1-0.5-0.3-0.6c-0.4-0.2-0.6-0.6-0.6-1.1v-4.7c0-1.9,1.6-3.5,3.5-3.5h1c1.9,0,3.5,1.6,3.5,3.5v4.7c0,0.4-0.2,0.8-0.6,1.1
		c-0.2,0.1-0.3,0.4-0.3,0.6v4.5c0,0.3,0.2,0.6,0.6,0.9c0.1,0,0.2,0.1,0.3,0.2c1,0.5,3.7,2,6.2,4c0.4,0.3,0.6,0.7,0.6,1.2V55h1.4
		l0-3.2C24.4,50.9,24,50,23.4,49.5z"/>
	<path id="XMLID_434_" class="st0" d="M40.2,39.7l-5-2.9l0-0.1c0.1-0.3,0.1-0.7,0.1-1c0-1.7-1.1-3.1-2.8-3.5l-0.1,0v-5.9h-1.4v5.9
		l-0.1,0c-1.6,0.4-2.8,1.8-2.8,3.5c0,0.4,0.1,0.7,0.1,1l0,0.1l-5,2.9l0.8,1.2l5.1-2.9l0.1,0.1c0.7,0.8,1.6,1.2,2.6,1.2
		c1,0,1.9-0.4,2.6-1.2l0.1-0.1l4.9,2.9L40.2,39.7z M34,35.6c0,1.2-1,2.2-2.1,2.2c-1.2,0-2.1-1-2.1-2.2c0-1.2,1-2.2,2.1-2.2
		C33,33.4,34,34.4,34,35.6z"/>
	<path id="XMLID_433_" class="st0" d="M63,55l0-3.2c0-0.8-0.4-1.7-1.1-2.3c-2.8-2.3-5.8-3.9-6.4-4.2l-0.1,0v-3.8l0,0
		c0.6-0.5,0.9-1.3,0.9-2.1v-4.7c0-2.7-2.2-5-4.9-5h-1c-2.7,0-4.9,2.2-4.9,5v4.7c0,0.8,0.3,1.6,0.9,2.1l0,0v3.8l-0.1,0
		c-0.6,0.3-3.5,1.8-6.4,4.2c-0.7,0.6-1.1,1.4-1.1,2.3V55h1.4v-3.2c0-0.5,0.2-0.9,0.6-1.2c2.9-2.3,5.9-4,6.5-4.2
		c0.3-0.2,0.5-0.5,0.5-0.8V41c0-0.2-0.1-0.5-0.3-0.6c-0.4-0.2-0.6-0.6-0.6-1.1v-4.7c0-1.9,1.6-3.5,3.5-3.5h1c1.9,0,3.5,1.6,3.5,3.5
		v4.7c0,0.4-0.2,0.8-0.6,1.1C54.1,40.5,54,40.7,54,41v4.5c0,0.3,0.2,0.6,0.6,0.9l0.3,0.2c1,0.5,3.7,2,6.2,4.1
		c0.4,0.3,0.6,0.7,0.6,1.2V55H63z"/>
	<path id="XMLID_432_" class="st0" d="M21,22.2c0-0.5,0.2-0.9,0.6-1.2c2.9-2.3,5.9-4,6.5-4.2c0.3-0.2,0.5-0.5,0.5-0.8v-4.5
		c0-0.2-0.1-0.5-0.3-0.6c-0.4-0.2-0.6-0.6-0.6-1.1V4.9c0-1.9,1.6-3.5,3.5-3.5h1c1.9,0,3.5,1.6,3.5,3.5v4.7c0,0.4-0.2,0.8-0.6,1.1
		c-0.2,0.1-0.3,0.4-0.3,0.6v4.5c0,0.3,0.2,0.6,0.6,0.9l0.3,0.2c1,0.5,3.7,2,6.2,4.1c0.4,0.3,0.6,0.7,0.6,1.2v3.2h1.4l0-3.2
		c0-0.9-0.4-1.7-1.1-2.3c-2.8-2.3-5.8-3.9-6.4-4.2l-0.1,0v-3.8l0,0c0.6-0.5,0.9-1.3,0.9-2.1V5c0-2.7-2.2-5-4.9-5h-1
		c-2.7,0-4.9,2.2-4.9,5v4.7c0,0.8,0.3,1.6,0.9,2.1l0,0v3.8l-0.1,0c-0.6,0.3-3.5,1.8-6.4,4.2c-0.7,0.6-1.1,1.4-1.1,2.3v3.2H21V22.2z"
		/>
</g>
</svg>
