<?xml version="1.0" encoding="utf-8"?>
<!-- Generator: Adobe Illustrator 19.2.0, SVG Export Plug-In . SVG Version: 6.00 Build 0)  -->
<svg version="1.1" id="Слой_1" xmlns="http://www.w3.org/2000/svg" xmlns:xlink="http://www.w3.org/1999/xlink" x="0px" y="0px"
	 width="73px" height="56px" viewBox="0 0 73 56" style="enable-background:new 0 0 73 56;" xml:space="preserve">
<style type="text/css">
	.st0{fill:#5C98CA;}
</style>
<g id="XMLID_140_">
	<path id="XMLID_535_" class="st0" d="M62.6,39.8l-0.3-0.1l0.2-0.2c2-1.8,3.1-4.3,3.1-7c0-4.4-3-8.2-7.3-9.2l-0.2,0V2.5
		c0-0.4-0.3-0.7-0.7-0.7H4.6c-0.4,0-0.7,0.3-0.7,0.7v41c0,0.4,0.3,0.7,0.7,0.7h23.6l3.9,6H0.7c-0.4,0-0.7,0.3-0.7,0.7
		c0,0.4,0.3,0.7,0.7,0.7h31.5c0.1,0,0.3,0,0.4-0.2l0.2-0.1l0.1,0.2c0.9,1.4,2.7,1.9,4.2,1.4l2.5-0.9l-0.1,0.3c-0.2,1-0.3,2-0.3,2.9
		c0,0.4,0.3,0.7,0.7,0.7h32.2c0.4,0,0.7-0.3,0.7-0.7C73,48.5,68.9,42.4,62.6,39.8z M64.2,32.5c0,4.4-3.6,8-8.1,8s-8.1-3.6-8.1-8
		s3.6-8,8.1-8S64.2,28.1,64.2,32.5z M5.3,42.7V3.2h51.4V23l-0.4,0c-0.1,0-0.1,0-0.2,0c-5.3,0-9.5,4.3-9.5,9.5c0,2.6,1.1,5.2,3.1,7
		l0.2,0.2l-0.3,0.1c-1.4,0.6-2.8,1.4-4,2.4l-0.1,0l-8.3,3.2l-0.1-0.1L31,35.7c-1-1.6-3.2-2.1-4.8-1.1L26,34.8l-0.1-0.2
		c0,0,0,0,0-0.1l-9.2-13.8c-0.1-0.2-0.3-0.3-0.5-0.3c-0.2,0-0.4,0-0.6,0.1c-0.3,0.2-0.4,0.7-0.2,1l9.2,13.8c0.1,0.1,0.2,0.2,0.3,0.3
		l0.2,0.1l-0.1,0.2c-0.7,1.2-0.7,2.6,0,3.7l2.1,3.2H5.3z M40.8,54.5l0-0.2c0.1-1.1,0.3-2.2,0.6-3.3c0.1-0.3,0-0.6-0.2-0.7
		c-0.2-0.2-0.5-0.2-0.8-0.1l-3.8,1.4c-0.9,0.3-1.9,0-2.5-0.8l-7.9-12c-0.3-0.5-0.4-1-0.3-1.5c0.1-0.5,0.4-1,0.9-1.3
		c0.9-0.6,2.2-0.3,2.8,0.6l6.6,10.1c0.2,0.3,0.6,0.4,0.9,0.3l9-3.4c0.1,0,0.1-0.1,0.2-0.1c1.5-1.2,3.1-2.1,4.9-2.7l0.1,0l0.1,0
		c2.8,1.6,6.5,1.6,9.3,0l0.1,0l0.1,0c6,2,10.2,7.3,10.5,13.6l0,0.2H40.8z"/>
	<path id="XMLID_562_" class="st0" d="M26.3,11h21c0.4,0,0.7-0.3,0.7-0.7c0-0.4-0.3-0.7-0.7-0.7h-21c-0.4,0-0.7,0.3-0.7,0.7
		C25.6,10.7,25.9,11,26.3,11z"/>
	<path id="XMLID_569_" class="st0" d="M26.3,18.4h21c0.4,0,0.7-0.3,0.7-0.7c0-0.4-0.3-0.7-0.7-0.7h-21c-0.4,0-0.7,0.3-0.7,0.7
		C25.6,18.1,25.9,18.4,26.3,18.4z"/>
	<path id="XMLID_576_" class="st0" d="M26.3,25.8H43c0.4,0,0.7-0.3,0.7-0.7c0-0.4-0.3-0.7-0.7-0.7H26.3c-0.4,0-0.7,0.3-0.7,0.7
		C25.6,25.4,25.9,25.8,26.3,25.8z"/>
</g>
</svg>
