<?xml version="1.0" encoding="utf-8"?>
<!-- Generator: Adobe Illustrator 19.2.0, SVG Export Plug-In . SVG Version: 6.00 Build 0)  -->
<svg version="1.1" id="Слой_1" xmlns="http://www.w3.org/2000/svg" xmlns:xlink="http://www.w3.org/1999/xlink" x="0px" y="0px"
	 width="43.9px" height="55.9px" viewBox="0 0 43.9 55.9" style="enable-background:new 0 0 43.9 55.9;" xml:space="preserve">
<style type="text/css">
	.st0{fill:#85B7C3;}
</style>
<g id="XMLID_309_">
	<path id="XMLID_354_" class="st0" d="M40.6,0.7H15.1L0.7,14.8v37.3c0,1.9,1.6,3.4,3.5,3.4h36c1.8,0,3.9-1.5,3.9-3.4v-48
		C44,2.2,42.4,0.7,40.6,0.7z M15.5,2.4v12.2H3L15.5,2.4z M42.5,52.1c0,0.9-1.2,1.9-2.4,1.9h-36c-1.1,0-2-0.9-2-1.9v-36h14.8V2.2
		h23.5c1.1,0,2,0.9,2,1.9v47.8h0.1V52.1z"/>
	<rect id="XMLID_373_" x="9.9" y="43.4" class="st0" width="24.1" height="1.4"/>
	<rect id="XMLID_374_" x="9.9" y="36.9" class="st0" width="24" height="1.4"/>
	<rect id="XMLID_375_" x="9.9" y="30.4" class="st0" width="24.1" height="1.4"/>
	<rect id="XMLID_376_" x="9.9" y="23.9" class="st0" width="24.1" height="1.4"/>
	<rect id="XMLID_377_" x="23" y="16.5" class="st0" width="10.9" height="1.4"/>
</g>
</svg>
