<?xml version="1.0" encoding="utf-8"?>
<!-- Generator: Adobe Illustrator 19.2.0, SVG Export Plug-In . SVG Version: 6.00 Build 0)  -->
<svg version="1.1" id="Слой_1" xmlns="http://www.w3.org/2000/svg" xmlns:xlink="http://www.w3.org/1999/xlink" x="0px" y="0px"
	 width="55px" height="55px" viewBox="0 0 55 55" style="enable-background:new 0 0 55 55;" xml:space="preserve">
<style type="text/css">
	.st0{fill:#85B7C3;}
</style>
<g id="XMLID_103_">
	<path id="XMLID_121_" class="st0" d="M47,8.1c-6.2-6.2-14.7-9-23.3-7.8c-0.4,0.1-0.7,0.5-0.7,0.9C23,1.6,23.4,2,23.9,1.9
		C32,0.7,40,3.4,45.8,9.2c10.1,10.1,10.1,26.5,0,36.6c-10.1,10.1-26.5,10.1-36.6,0C-0.7,35.9-0.8,19.6,8.9,9.5l2.8-2.9l0.8,8.7
		c0,0.4,0.4,0.8,0.9,0.7c0.4,0,0.8-0.4,0.7-0.9L13.2,4.8c0-0.4-0.4-0.7-0.8-0.7H1.1h0c-0.3,0-0.5,0.1-0.6,0.2
		C0.4,4.4,0.3,4.6,0.3,4.9c0,0.4,0.4,0.8,0.8,0.8h9.2L7.4,8.8C-2.7,19.7-2.4,36.5,8.1,47C18.8,57.7,36.2,57.7,47,47
		c5.2-5.2,8-12.1,8-19.4C55,20.2,52.1,13.3,47,8.1z"/>
	<path id="XMLID_142_" class="st0" d="M27.5,9.4c-0.4,0-0.8,0.4-0.8,0.8v17.7l9.6,9.6c0.2,0.2,0.4,0.2,0.6,0.2c0.2,0,0.4,0,0.6-0.2
		c0.2-0.2,0.2-0.4,0.2-0.6c0-0.1,0-0.4-0.2-0.6l-9.1-9.1v-17C28.3,9.7,28,9.4,27.5,9.4z"/>
</g>
</svg>
