<?xml version="1.0" encoding="utf-8"?>
<!-- Generator: Adobe Illustrator 19.2.0, SVG Export Plug-In . SVG Version: 6.00 Build 0)  -->
<svg version="1.1" id="Слой_1" xmlns="http://www.w3.org/2000/svg" xmlns:xlink="http://www.w3.org/1999/xlink" x="0px" y="0px"
	 width="92px" height="55px" viewBox="0 0 92 55" style="enable-background:new 0 0 92 55;" xml:space="preserve">
<style type="text/css">
	.st0{fill:#85B6C2;}
</style>
<path id="XMLID_502_" class="st0" d="M82.9,2.7c-0.2-0.1-0.4-0.1-0.5,0L66,9.1l-0.3-0.2c-6.1-3.4-13.6-7.3-16-7.7
	c-0.5-0.1-1-0.1-1.6-0.1c-2.6,0-5.2,0.9-6,1.2l-0.2,0c-1.7,0.2-10.3,1.3-16.1,4.2l-0.3,0.2l-0.3-0.2c-5-2.6-9-5.5-9.4-5.8
	c-0.2-0.1-0.4-0.2-0.5-0.1c-0.2,0-0.3,0.1-0.4,0.3L0.7,22.4c-0.2,0.3-0.1,0.7,0.2,0.9l18.3,13.1l-0.2,0.6c-0.5,1.2-0.6,2.5-0.1,3.6
	c0.9,2,3.1,3.1,4.3,3.6l0.3,0.1l0.1,0.4c0.8,3.4,2.8,4.1,4.3,4.1c0.4,0,0.8,0,1.2-0.1l0.6-0.1L30,49c1,2.3,2.4,3.4,4.2,3.4
	c0.6,0,1.1-0.1,1.7-0.4l0.5-0.2l0.4,0.4c0.8,0.9,2.2,2.1,4.3,2.3c1.5,0.2,2.3-0.4,2.7-0.8c0.5-0.5,0.7-1.2,0.8-1.7l0.2-1.1l4.1,2.9
	c0.1,0.1,2,1.2,4,1.2c0.6,0,1.1-0.1,1.6-0.3c0.8-0.4,1.4-1,1.9-1.9l0.2-0.5l0.5,0c1.1,0.1,2.8-0.1,4.1-1c1-0.7,1.7-1.8,2.1-3.1
	l0.1-0.5l0.5,0c1.1-0.1,2.7-0.4,4-1.6c0.9-0.8,1.5-2,1.7-3.3l0.1-0.6l0.6,0c1.1,0,2.7-0.3,3.9-1.3c1.1-1,1.6-2.5,1.6-4.5l0-0.5
	l15.9-8c0.3-0.1,0.4-0.4,0.4-0.7l-8.7-24C83.2,2.9,83.1,2.8,82.9,2.7z M23.4,41.7l-0.2,1.1l-0.9-0.6c-1.2-0.7-1.9-1.4-2.3-2.3
	c-0.4-0.8-0.3-1.7,0.1-2.7c1-2.2,2.3-3.4,3.5-3.4c0.7,0,1.5,0.4,2.4,1.3l0.5,0.5l-0.4,0.5C25.1,37.5,23.8,39.5,23.4,41.7z
	 M29.4,46.6l0,0.6l-0.6,0.1c-0.3,0.1-0.6,0.1-0.9,0.1c-1.7,0-2.7-1.3-3.2-3.7l0,0c-0.4-2.3,0.9-4.7,2.1-6.3l1-1
	c0.6-0.6,2.1-1.7,3.4-1.7c1.1,0,1.8,0.9,2.2,2.8l0.1,0.4L33.4,38C32.4,39.1,29.5,43,29.4,46.6z M35.7,50.1l0.1,0.6l-0.5,0.2
	c-0.4,0.2-0.7,0.2-1.1,0.2c0,0,0,0,0,0c-1.4,0-2.5-1.2-3.3-3.5l-0.3-0.9l0.2,0c0-3.5,3.4-7.6,3.9-8.1l0.3-0.2
	c0.3-0.1,0.8-0.3,1.5-0.3c1.1,0,2.1,0.6,2.8,1.7l0.5,0.7l-0.8,0.4c-0.5,0.3-1,0.7-1.4,1.2C36,43.8,35.3,47,35.7,50.1z M43.3,51.1
	l0,0.3c0,0.4-0.2,1.1-0.6,1.5c-0.2,0.2-0.6,0.4-1.2,0.4c-0.1,0-0.3,0-0.4,0c-2.2-0.3-3.6-2-3.9-2.5l-0.1-0.3c-0.5-2.8,0.1-6,1.4-7.6
	c0.6-0.7,1.3-1.1,2.1-1.1c0.4,0,2.2,0.3,3.1,3.2l0,0.1L43.3,51.1z M73.2,39.8L73.2,39.8c-1.1,1-2.6,1-3.5,1l-0.3,0l-10.9-9.9
	c-0.3-0.2-0.7-0.2-0.9,0c-0.1,0.1-0.2,0.3-0.2,0.5s0.1,0.3,0.2,0.5l10.6,9.6l0,0.4c-0.1,1.4-0.5,2.5-1.3,3.2c-1,0.9-2.4,1.2-3.4,1.3
	l-0.3,0l-10.3-9.9c-0.3-0.3-0.7-0.2-0.9,0c-0.3,0.3-0.2,0.7,0,0.9l10.1,9.6L62,47.5c-0.3,1.3-0.8,2.1-1.6,2.7
	c-0.7,0.5-1.5,0.7-2.5,0.8l-0.4,0l-0.3-0.4l-8.7-8.3c-0.3-0.3-0.7-0.2-0.9,0c-0.1,0.1-0.2,0.3-0.2,0.5c0,0.2,0.1,0.3,0.2,0.5l8,7.6
	l-0.1,0.4c-0.3,1.2-0.7,1.9-1.5,2.2c-0.3,0.1-0.7,0.2-1.1,0.2c-1.5,0-3.2-0.9-3.2-1l-4.8-3.4l0.4-4.3l0-0.1
	c-0.9-3.2-2.9-4.1-3.7-4.3l-0.3-0.1L41,40.2c-1.4-2.8-3.2-3.4-4.6-3.4c-0.3,0-0.6,0-0.9,0.1L34.8,37l-0.2-0.6c-0.8-2.5-2.2-3-3.3-3
	c-1.2,0-2.4,0.7-3.2,1.2l-0.5,0.4l-0.4-0.5c-2.4-2.6-4.9-2.5-6.9,0.2l-0.4,0.6L2.1,22.6L15.5,2.3l0.6,0.4c1.7,1.2,5.1,3.4,9.1,5.4
	c0.2,0.1,0.4,0.1,0.6,0c2.6-1.4,6.2-2.6,10.9-3.5L39.3,4l-2,1.8c-0.9,0.9-1.9,1.8-2.9,2.9c-4.2,4.4-2.5,6.9-2.3,7.1
	c1,1.1,2.3,1.7,3.9,1.7c0,0,0,0,0,0c3.7,0,7.9-3.2,9.1-4.2l0.2-0.1l4.3-0.5l0.2,0.6c2.2,7.7,11.1,11,12.8,11.6l0.2,0.1l11.2,11.2
	l0.3,0.2l0.1,0.5C74.3,38.2,73.9,39.2,73.2,39.8z M74.5,34.9L63.6,24c-0.1-0.1-0.2-0.1-0.3-0.2c-0.5-0.1-10.9-3.5-12.5-11.9
	c-0.1-0.3-0.3-0.5-0.7-0.5L45,11.9c-0.1,0-0.3,0.1-0.4,0.2c0,0-4.8,4.2-8.6,4.2c-1.2,0-2.1-0.4-2.8-1.2l-0.1-0.2
	c-0.2-0.6-0.5-2.3,2.3-5.2C38.9,6,40.9,4.5,41.8,4l0-0.1l0.7-0.2c0,0,2.8-1.2,5.6-1.2c0.5,0,0.9,0,1.4,0.1C52,3,61.2,7.8,65.6,10.4
	c0.2,0.1,0.4,0.1,0.5,0.1L82,4.1l8.6,22.8L74.5,34.9z"/>
</svg>
