<?xml version="1.0" encoding="utf-8"?>
<!-- Generator: Adobe Illustrator 19.2.0, SVG Export Plug-In . SVG Version: 6.00 Build 0)  -->
<svg version="1.1" id="Слой_1" xmlns="http://www.w3.org/2000/svg" xmlns:xlink="http://www.w3.org/1999/xlink" x="0px" y="0px"
	 width="51px" height="59px" viewBox="0 0 51 59" style="enable-background:new 0 0 51 59;" xml:space="preserve">
<style type="text/css">
	.st0{fill:#85B7C3;}
</style>
<g id="XMLID_302_">
	<path id="XMLID_331_" class="st0" d="M9.4,22.4c3.6,0,6.6-2.9,6.6-6.6s-3-6.6-6.6-6.6s-6.6,2.9-6.6,6.6S5.7,22.4,9.4,22.4z
		 M9.4,10.7c2.7,0,5,2.2,5,4.9s-2.3,4.9-5,4.9s-5-2.2-5-4.9S6.6,10.7,9.4,10.7z"/>
	<path id="XMLID_335_" class="st0" d="M0.2,28.8v15c0,1.9,1.5,3.4,3.5,3.4h0.9v11.3h1.6V45.6H3.7c-1,0-1.9-0.8-1.9-1.8v-15
		c0-1,0.8-1.8,1.8-1.8h8.7v-1.6H3.7C1.8,25.4,0.2,26.9,0.2,28.8z"/>
	<polygon id="XMLID_336_" class="st0" points="12.5,58.5 14,58.5 14,47.3 14.9,47.3 14.9,45.6 12.5,45.6 	"/>
	<path id="XMLID_339_" class="st0" d="M25.6,15.6c4.2,0,7.7-3.4,7.7-7.6s-3.5-7.6-7.7-7.6S17.9,3.8,17.9,8S21.4,15.6,25.6,15.6z
		 M25.7,1.8c3.4,0,6.1,2.7,6.1,6s-2.7,6-6.1,6s-6.1-2.7-6.1-6C19.6,4.6,22.2,1.9,25.7,1.8z"/>
	<path id="XMLID_342_" class="st0" d="M41.8,22.4c3.6,0,6.6-2.9,6.6-6.6s-3-6.6-6.6-6.6s-6.6,2.9-6.6,6.6S38.2,22.4,41.8,22.4z
		 M38.3,12.2c0.9-0.9,2.2-1.5,3.5-1.4c2.7,0,5,2.2,5,4.9s-2.3,4.9-5,4.9c-2.7,0-5-2.2-5-4.9C36.8,14.4,37.3,13.1,38.3,12.2z"/>
	<path id="XMLID_343_" class="st0" d="M36.2,41.3V23.4c0-2.1-1.7-3.8-3.8-3.8H18.8c-2.1,0-3.8,1.7-3.8,3.8v17.9
		c0,2.1,1.7,3.8,3.8,3.8h1.3v13.5h1.6V43.4h-2.8c-1.3,0-2.4-1-2.4-2.3V23.4c0-1.3,1-2.3,2.4-2.3h13.6c1.3,0,2.4,1,2.4,2.3v17.8
		c0,1.3-1,2.3-2.4,2.3h-3.1v15.1H31V45h1.5C34.5,45,36.2,43.3,36.2,41.3L36.2,41.3z"/>
	<polygon id="XMLID_344_" class="st0" points="36.2,47.3 37.2,47.3 37.2,58.5 38.8,58.5 38.8,45.6 36.2,45.6 	"/>
	<path id="XMLID_345_" class="st0" d="M47.5,25.4h-8.7V27h8.7c1,0,1.8,0.8,1.8,1.8v15c0,1-0.8,1.8-1.8,1.8H45v12.9h1.6V47.3h0.9
		c1.9,0,3.5-1.6,3.5-3.4V28.8C50.9,26.9,49.5,25.4,47.5,25.4z"/>
</g>
</svg>
