<?xml version="1.0" encoding="utf-8"?>
<!-- Generator: Adobe Illustrator 19.2.0, SVG Export Plug-In . SVG Version: 6.00 Build 0)  -->
<svg version="1.1" id="Слой_1" xmlns="http://www.w3.org/2000/svg" xmlns:xlink="http://www.w3.org/1999/xlink" x="0px" y="0px"
	 width="55px" height="55.4px" viewBox="0 0 55 55.4" style="enable-background:new 0 0 55 55.4;" xml:space="preserve">
<style type="text/css">
	.st0{fill:#85B7C3;}
</style>
<g id="XMLID_143_">
	<path id="XMLID_155_" class="st0" d="M55.1,18.5L55.1,18.5L49,5.8c-0.2-0.4-0.4-0.4-0.6-0.4h-6.8V0.7c0-0.4-0.3-0.7-0.7-0.7h-5.5
		c-0.4,0-0.7,0.3-0.7,0.7v4.7H7.1c-0.3,0-0.5,0.3-0.7,0.5L0.3,18.6c-0.1,0.2-0.1,0.5,0.1,0.7l0.1,0.1c0,0.1,0.3,0.3,0.5,0.3h5.3
		v34.6c0,0.4,0.3,0.7,0.7,0.7h41.7c0.4,0,0.7-0.3,0.7-0.7V19.7h5.3c0.4,0,0.7-0.3,0.7-0.7C55.2,18.9,55.1,18.7,55.1,18.5z M36.1,1.4
		h4.1v4h-4.1V1.4z M23.9,53.6H13.6V31.9h10.3V53.6z M47.9,53.6H25.3V31.2c0-0.4-0.3-0.7-0.7-0.7H12.9c-0.4,0-0.7,0.3-0.7,0.7v22.4
		H7.6V19.7h40.3V53.6z M2.1,18.3L7.5,6.7H48l5.5,11.6H2.1z"/>
	<path id="XMLID_463_" class="st0" d="M31.6,43.5h9.3c0.4,0,0.7-0.3,0.7-0.7V31.2c0-0.4-0.3-0.7-0.7-0.7h-9.3
		c-0.4,0-0.7,0.3-0.7,0.7v11.5C30.9,43.2,31.1,43.5,31.6,43.5z M32.3,31.9h7.9v10.2h-7.9V31.9z"/>
</g>
</svg>
